<?xml version="1.0" encoding="utf-8"?>
<!-- Generator: Adobe Illustrator 26.0.1, SVG Export Plug-In . SVG Version: 6.00 Build 0)  -->
<svg version="1.1" id="Layer_1" xmlns="http://www.w3.org/2000/svg" xmlns:xlink="http://www.w3.org/1999/xlink" x="0px" y="0px"
	 width="200px" height="200px" viewBox="0 0 200 200" style="enable-background:new 0 0 200 200;" xml:space="preserve">
<style type="text/css">
	.st0{fill:#1688D9;}
</style>
<g>
	<path class="st0" d="M3.4,16.3c0-2.6,0-5.1,0-7.7c1.7-4.1,4.8-5.4,9.1-5.4c52.7,0.1,105.4,0.1,158.1,0.1c0.6,0,1.2,0,1.7,0
		c3.9,0.1,6.7,2.6,7.1,6.5c0.2,1.8,0.2,3.6,0,5.4c-0.3,3.9-3.2,6.5-7.1,6.6c-0.9,0-1.9,0-3,0c0,2.7,0.1,5.2,0,7.7
		c0,1.2,0.4,1.9,1.4,2.7c6.4,4.6,10.8,10.6,11.6,18.4c0.8,7.5,0.5,15.2,0.6,22.7c0,1.7-1.3,2.7-2.9,2.6c-1.6-0.1-2.6-1.1-2.7-2.9
		c-0.1-2.9,0-5.7,0-8.6c0-0.9,0-1.6-1.1-1.9c-1.1-0.2-2.1-0.7-3.4-1.2c0,2.7,0,5.3,0,7.8c-0.1,5.3-1.9,9.9-5.6,13.6
		c-0.6,0.6-1.3,1.2-1.9,1.9c-1.2,1.3-0.7,4.8,0.8,5.1c3.6,0.9,7.3,1.6,11.2,2.4c0-2.7-0.1-5.1,0-7.6c0.1-1.8,1.3-3,2.9-2.9
		c1.6,0,2.8,1.3,2.8,3.2c0.1,2.8,0,5.6,0,8.3c0.5,0.2,0.8,0.3,1.1,0.4c9.5,2.5,14.5,9,14.8,18.8c0.2,10.9,0.6,21.7,0.9,32.5
		c0,0.7,0.2,1.4,0.3,2c0,3.3,0,6.6,0,10c-0.1,0.4-0.3,0.8-0.4,1.2c-1.7,7.3-6.1,12.3-13.3,14.5c-1.6,0.5-1.9,1.2-1.7,2.7
		c0.7,5.6,1.4,11.3,1.9,16.9c0.4,4-1.8,6.3-5.8,6.3c-19.4,0-38.9,0-58.3,0c-4,0-6.2-2.3-5.8-6.3c0.5-5.3,1.2-10.5,1.7-15.8
		c0.3-3.1,0.8-6.1,2.7-8.7c0.2-0.3,0-1-0.1-1.6c-0.4-2.1-1.1-4.2-1.2-6.3c-0.2-5.5-0.1-11.1-0.1-16.7c0-0.7,0-1.4,0-2.3
		c-1.1,0-1.9,0-2.8,0c-34.9,0-69.7,0-104.6,0c-4.4,0-7.4-1.4-8.9-5.6c0-2.4,0-4.9,0-7.3c1.6-4.8,5.4-6.1,9.9-5.5
		c0-33.9,0-67.4,0-101.1C8.6,22.3,5.1,20.9,3.4,16.3z M73.2,122.7c0.1-0.2,0.2-0.4,0.3-0.6c-1.4-1.2-2.6-2.5-4.1-3.6
		c-3.5-2.6-5.1-6-4.2-10.3c0.2-1.2-0.1-1.7-1-2.3c-5.3-3.6-10.7-7.3-16-11c-2.6-1.8-3.2-3.3-2.1-4.9c1.2-1.7,2.7-1.6,5.3,0.2
		c5.8,4,11.6,8,17.4,11.9c4.5-3,8.8-2.7,13.1,0.4c2.3,1.6,4.6,3.1,7,4.7c4.5,3.1,9,6.1,13.5,9.2c0.4,0.3,0.9,0.5,1.7,1
		c0.2-2.4,0.3-4.5,0.5-6.5c0.5-8.3,6-15.1,13.9-17c1.6-0.4,2-1,2-2.5c-0.1-11.7-0.1-23.4,0-35.1c0.1-16.9,12.8-29.6,29.7-29.5
		c4.5,0,9,0.6,13.4,0.9c0-1.6,0-3.7,0-5.8c-48.1,0-96,0-144,0c0,33.6,0,67.2,0,100.9c2.4,0,4.6-0.1,6.9,0c2.1,0.1,3.4,1.8,2.8,3.7
		c-0.5,1.6-1.8,2-3.3,2c-4.2,0-8.4,0-12.7,0c-3.9,0-3.9,0-3.9,3.8c0,3.1,0,3.1,3.1,3.1c26.1,0,52.2,0,78.3,0c0.7,0,1.3,0,2,0
		c-2.5-2.1-5.1-3.7-7.6-5.4c-1.6-1.1-3.2-1.5-5.2-1.5c-13.4,0.1-26.9,0-40.3,0c-0.7,0-1.4,0-2.1-0.1c-1.6-0.2-2.6-1.2-2.5-2.8
		c0-1.6,1-2.6,2.6-2.8c0.6-0.1,1.3,0,1.9,0c10.6,0,21.1,0,31.7,0C71.8,122.7,72.5,122.7,73.2,122.7z M80.3,120.1
		c7,4.5,14,9.1,21.1,13.4c1.7,1,3.9,1.6,5.9,1.8c3.6,0.3,7.2,0.1,10.7,0.1c0.5,0,1.1-0.1,1.7-0.2c0-1.9,0-3.6,0-5.4
		c0.1-1.8,1.2-3,2.8-3c1.6,0,2.8,1.2,2.9,3c0,0.5,0,1,0,1.5c0,9.4,0.2,18.8-0.1,28.2c-0.1,5.3,3.2,8.6,8.6,8.6
		c13.8-0.2,27.6-0.1,41.5-0.1c0.7,0,1.4,0,2.3,0c0-0.9,0-1.6,0-2.3c0-11.6,0-23.1,0-34.7c0-0.8-0.1-1.9,0.3-2.4
		c0.7-0.8,1.9-1.8,2.8-1.7c0.9,0.1,1.8,1.3,2.5,2.2c0.3,0.4,0.1,1.2,0.1,1.9c0,11.4,0,22.9,0,34.3c0,0.7,0,1.4,0,2.3
		c0.9-0.3,1.6-0.4,2.2-0.7c5.3-2.1,8.6-7.1,8.5-13.1c-0.3-14.3-0.7-28.6-1.2-42.9c-0.2-6.9-6.3-12.4-13.1-12
		c-3.9,14.5-17.4,20.3-27.9,20.3c-6.4,0-12.3-1.5-17.6-5c-5.7-3.7-9.5-8.8-11-15.4c-7.4,0.1-12.8,5.3-13.2,12.4
		c-0.1,1.8-0.3,3.7-0.4,5.5c-0.3,5.4-5.5,7.9-10,4.9c-3.3-2.2-6.5-4.5-9.8-6.7c-1.4-1-2.8-1.9-4.1-2.8
		C84,114.8,82.2,117.3,80.3,120.1z M91.3,9.1c-26.2,0-52.5,0-78.7,0c-0.5,0-1,0-1.5,0c-1.4,0-2,0.6-1.9,2c0,0.6,0,1.1,0,1.7
		c0,3.2,0,3.2,3.2,3.2c52.5,0,105.1,0,157.6,0c3.9,0,3.9,0,3.9-3.9c0-2.9-0.1-3-3-3C144.3,9.1,117.8,9.1,91.3,9.1z M180.7,192.8
		c0-0.7,0.1-1.2,0-1.7c-0.6-4.9-1.2-9.7-1.7-14.6c-0.4-3.5-0.2-2.9-3.3-2.9c-13.1,0-26.2,0-39.3,0c-3.7,0-7.4,0.1-11.2-2.4
		c-1.6,7.3-1.8,14.4-2.9,21.5C142,192.8,161.2,192.8,180.7,192.8z M177.2,56.7c-0.1-9-3.5-15.8-10.7-20.6c-5-3.3-10.5-3.8-16.3-3.8
		C136,32.5,125.8,42.8,126,56.9c0,1.3,0.5,1.8,1.6,2.1c3.7,1,7.4,1.3,11.2,0.8c9.5-1.3,17.7-5.5,25.4-10.9c2.7-1.9,4.1-1.5,5.5,1.4
		C171.3,53.4,173.6,55.5,177.2,56.7z M144.3,89.5c-1.2,4-3.9,5.7-7.6,6.3c-2.5,0.4-5,1-7.4,1.6c0.9,8.8,11.2,16,22.4,16
		c11.3,0,21.5-7.3,22.4-16.1c-2-0.4-4.1-1-6.1-1.3c-4-0.6-7.6-1.8-8.9-6.5C154,92.5,149.2,92.5,144.3,89.5z M136.5,65.8
		c-0.2,4.1-0.2,8.1,2.5,11.1c2.5,2.8,5.5,5.3,8.5,7.7c2.7,2.1,5.8,2,8.5-0.1c2.9-2.2,5.7-4.6,8.1-7.3c1.3-1.5,2.3-3.7,2.5-5.6
		c0.4-4.9,0.3-9.8,0.3-14.7c0-0.7-0.7-1.3-1.2-2C156.7,60.8,147.3,65,136.5,65.8z M126.1,92.1c3.4-0.7,6.6-1.3,9.7-2
		c0.9-0.2,2.3-0.9,2.5-1.6c0.3-1.5,0.7-3.2-0.8-4.6c-3.4-3.1-5.9-6.9-6.6-11.6c-0.3-2.2-0.3-4.4-0.4-6.7c-1.5-0.3-2.9-0.6-4.4-0.9
		C126.1,73.8,126.1,82.7,126.1,92.1z M80.2,109.6c0.1-2.1-3.9-4.4-6.4-3.6c-2.2,0.7-3.5,2.9-2.9,5.1c0.5,2,3.5,4.4,5.2,4.2
		C77.1,115,80.2,110.9,80.2,109.6z"/>
	<path class="st0" d="M69.6,38.7c-11.4,0-22.9,0-34.3,0c-0.7,0-1.4,0-2.1-0.1c-1.6-0.2-2.4-1.2-2.5-2.7c0-1.4,0.7-2.4,2.1-2.8
		c0.7-0.2,1.4-0.2,2.1-0.2c23.2,0,46.4,0,69.6,0c0.7,0,1.4,0,2.1,0.2c1.4,0.4,2.1,1.4,2.1,2.8c-0.1,1.4-0.8,2.4-2.3,2.6
		c-0.7,0.1-1.4,0.1-2.1,0.1C92.8,38.7,81.2,38.7,69.6,38.7z"/>
	<path class="st0" d="M69.8,52.9c11.6,0,23.1,0,34.7,0c0.8,0,1.6,0,2.3,0.2c1.3,0.4,2,1.4,2,2.7c0,1.4-0.7,2.3-2,2.7
		c-0.7,0.2-1.4,0.2-2.1,0.2c-23.2,0-46.4,0-69.6,0c-0.6,0-1.2,0-1.7-0.1c-1.6-0.2-2.5-1.2-2.5-2.8c0-1.5,0.9-2.5,2.4-2.7
		c0.7-0.1,1.4-0.1,2.1-0.1C46.8,52.9,58.3,52.9,69.8,52.9z"/>
	<path class="st0" d="M51.5,78.6c-5.5,0-11,0-16.5,0c-0.7,0-1.4,0-2.1-0.2c-1.4-0.3-2.2-1.3-2.2-2.8c0-1.4,0.8-2.4,2.3-2.7
		c0.6-0.1,1.3-0.1,1.9-0.1c11.1,0,22.3,0,33.4,0c0.6,0,1.2,0,1.7,0.1c1.6,0.2,2.4,1.2,2.4,2.7c0,1.5-0.8,2.5-2.4,2.8
		c-0.7,0.1-1.4,0.1-2.1,0.1C62.5,78.6,57,78.6,51.5,78.6z"/>
</g>
</svg>
