<?xml version="1.0" encoding="utf-8"?>
<!-- Generator: Adobe Illustrator 26.0.2, SVG Export Plug-In . SVG Version: 6.00 Build 0)  -->
<svg version="1.1" id="Layer_1" xmlns="http://www.w3.org/2000/svg" xmlns:xlink="http://www.w3.org/1999/xlink" x="0px" y="0px"
	 width="2000px" height="1683.1px" viewBox="0 0 2000 1683.1" style="enable-background:new 0 0 2000 1683.1;" xml:space="preserve"
	>
<style type="text/css">
	.st0{fill:#EE6F57;}
	.st1{fill:#E5ECFF;}
	.st2{fill:none;stroke:#FBC343;stroke-width:3.8197;stroke-miterlimit:10;}
	.st3{fill:none;stroke:#FBC343;stroke-width:3.75;stroke-miterlimit:10;}
	.st4{clip-path:url(#SVGID_00000007412469843736632350000003459383990642181779_);}
	.st5{fill:#FFEEC7;}
	.st6{fill:#FFFFFF;}
	.st7{fill:#E28B6D;}
	.st8{fill:#102048;}
	.st9{opacity:0.8;fill:#FFFFFF;}
	.st10{fill:#1F3C88;}
	.st11{fill:#6F3428;}
	.st12{fill:#708CD5;}
	.st13{opacity:0.3;fill:#1F3C88;}
	.st14{fill:#F9B384;}
	.st15{fill:none;stroke:#102048;stroke-width:5;stroke-miterlimit:10;}
	.st16{fill:#3C1C16;}
	.st17{opacity:0.15;fill:#3C1C16;}
	.st18{opacity:0.5;fill:#FC8879;}
	.st19{fill:#FFFFFF;stroke:#1F3C88;stroke-width:3.75;stroke-miterlimit:10;}
	.st20{opacity:0.3;fill:#3C1C16;}
	.st21{fill:#8CBFBE;}
	.st22{fill:#C6EAE9;}
	.st23{fill:#FFFFFF;stroke:#708CD5;stroke-width:5;stroke-miterlimit:10;}
	.st24{fill:#FBC343;}
	.st25{opacity:0.8;}
</style>
<g>
	<g>
		<path class="st0" d="M1886.6,1389.9c-0.2,0-0.4,0-0.5,0l1.6-27.5h-140.1l6.8,116.8c1.3,21.9,19.4,39,41.3,39h43.9
			c21.9,0,40.1-17.1,41.3-39l1.6-27c1.4,0.1,2.7,0.2,4.1,0.2c20.5,0,37.1-14,37.1-31.3C1923.6,1403.9,1907,1389.9,1886.6,1389.9z
			 M1886.6,1439.5c-1.2,0-2.3-0.1-3.4-0.2l2.1-36.4c0.4,0,0.9,0,1.3,0c13.3,0,24.1,8.2,24.1,18.3
			C1910.7,1431.3,1899.9,1439.5,1886.6,1439.5z"/>
		<g>
			<path class="st1" d="M1831.7,1351.8c-13.7-1.8-26.7-9.8-35.5-21.1c-4.4-5.7-7.9-12.3-9.9-19.4c-0.6-1.8-0.9-3.6-1.3-5.4
				c-0.2-1.8-0.6-3.6-0.7-5.5c-0.4-3.7-0.2-7.3,0.1-11c0.7-7.3,2.7-14.4,6-21c1.6-3.3,3.5-6.4,5.8-9.3c2.2-2.9,4.8-5.7,7.3-8
				c2.5-2.3,4.8-4.3,6.9-6.3c1-1,2-2,2.8-3c0.8-1,1.6-2,2.1-3c1.2-2,1.9-4.4,2-6.7c0.1-2.3-0.5-4.4-2-6.2l3.5-5.1
				c1.9,0.9,3.6,2.5,4.8,4.2c1.2,1.8,2.1,3.8,2.5,5.8c1,4.1,0.7,8.2-0.6,12.2c-2.8,8-8.1,13.2-12.1,17.8c-2,2.3-3.7,4.4-5.1,6.8
				c-0.8,1.1-1.4,2.4-2.1,3.6c-0.6,1.3-1.3,2.5-1.8,3.8c-2.2,5.1-3.6,10.5-4.2,16c-1.2,11.1,1.2,22.1,7.1,31.9
				c5.9,9.7,14.9,17.8,26,22.9L1831.7,1351.8z"/>
			<path class="st1" d="M1835.9,1319c5.6-5,10.2-10.4,13.7-16.3c3.5-5.9,5.9-12.2,7-18.6c1.1-6.4,0.9-13.1-0.3-19.8
				c-1.3-6.7-3.6-13.3-7-20.1l4.5-4.3c7.3,4.6,12.8,12.1,16,20.3c3.2,8.3,4.2,17.6,2.5,26.6c-1.6,9-5.8,17.3-11.7,24
				c-5.9,6.6-13.5,11.7-21.9,13.7L1835.9,1319z"/>
		</g>
	</g>
	<g>
		<path class="st2" d="M730.1,1546c-178.9-34.6-305.2-138.9-363.9-300.3c-93.3-256.8,6.7-635.5,274.1-718.6
			c105.9-32.9,236,26.1,344.8,25.2c152.8-1.1,290.3-94.9,442.1-83c197.7,15.6,342.2,197.7,379.2,382.4c12.7,63.4,14.2,129.1,4,192.9
			c-11.1,69.4-33.6,137.3-67.8,197.4c-29.5,51.8-97.6,120.4-155.6,134.2C1587.1,1376.3,730.1,1546,730.1,1546z"/>
		<path class="st3" d="M1209,1517.4c176.8-43.7,311.9-175.5,358.5-326.3c74.1-240-54.9-577.6-329.5-635.1
			c-55.8-11.7-114.5-8.7-171.1-2.2c-92.4,10.7-187.2,24.1-280.4,21.1c-90.6-2.9-178.4-29.5-269.7-27.5
			c-301.7,6.8-482.4,294.9-413.1,558.8c16.4,62.3,44.1,122.6,83,175c33.5,45.1,107.1,102.8,166.2,111.5
			C352.9,1392.6,1209,1517.4,1209,1517.4z"/>
		<g>
			<defs>
				<path id="SVGID_1_" d="M1652.7,1229.5c-47.4,137.2-104.1,272.7-301,325.1l-851.4-9C308.3,1454.9,203.5,1276,186,1082.9
					c-5.8-63.8-2-129.2,11.4-193.4c3.5-16.9,7.7-33.7,12.5-50.4c44-151.6,137.1-294.6,275.6-375.3c89-51.8,203-34.7,297.6-8.1
					c85.2,24,168.4,57.6,256.4,67.7c70.1,8,141.4,0.9,211.7,3.7c25.2,1,50.2,3.2,75,7.9c106.2,19.9,200.3,85.1,264.9,172.1
					c22.3,29.9,41,62.4,55.6,96.6C1703.5,937.3,1700.1,1092.3,1652.7,1229.5z"/>
			</defs>
			<clipPath id="SVGID_00000072982117685355411520000010769916451673039006_">
				<use xlink:href="#SVGID_1_"  style="overflow:visible;"/>
			</clipPath>
			<g style="clip-path:url(#SVGID_00000072982117685355411520000010769916451673039006_);">
				<path class="st5" d="M1652.7,1229.5c-47.4,137.2-104.1,272.7-301,325.1l-851.4-9C308.3,1454.9,203.5,1276,186,1082.9
					c-5.8-63.8-2-129.2,11.4-193.4c3.5-16.9,7.7-33.7,12.5-50.4c44-151.6,137.1-294.6,275.6-375.3c89-51.8,203-34.7,297.6-8.1
					c85.2,24,168.4,57.6,256.4,67.7c70.1,8,141.4,0.9,211.7,3.7c25.2,1,50.2,3.2,75,7.9c106.2,19.9,200.3,85.1,264.9,172.1
					c22.3,29.9,41,62.4,55.6,96.6C1703.5,937.3,1700.1,1092.3,1652.7,1229.5z"/>
				<path class="st6" d="M33,1437.3c-3.9-47.1,22.5-98,68.9-132.7c42.2-31.6,94.3-47.7,144.4-60.4c277.9-70.5,571.5-62.1,855.4-54
					c253.7,7.3,516.1,14.8,767.2-33.8c35.8-6.9,73.3-15.3,105.3-35.2c34.4-21.3,56.1-54.7,56.8-87.1c1.2-60.8-64.7-102.5-104-121.9
					c-149.6-73.8-333.6-101.6-579.1-87.4c-184.8,10.7-370.1,40.4-550.9,88.4c-40.6,10.8-81.9,22.7-121.8,34.3
					c-142.9,41.3-290.6,84-441.3,84c-0.8,0-1.5,0-2.3,0c-40.9-0.1-93.4-8.4-111.3-47.2c-12.6-27.4-2-58.6,9.1-79.9
					C166.6,833,237,791.4,289.5,769c59-25.1,123.1-38.7,185.1-51.9c7.4-1.6,14.7-3.1,22.1-4.7c138.5-29.8,276.9-67.1,411.4-110.9
					c63.8-20.8,96.6-47.8,100.1-82.6c3.2-30.9-19.5-57.9-43.3-71c-28.6-15.7-62.3-17.7-88.5-17.7c-0.1,0-0.2,0-0.4,0
					c-79.1,0-157.6,19.4-227.1,56.2c-25.8,13.6-50.7,29.9-74.8,45.6c-31.9,20.8-64.8,42.3-100.3,58.1
					c-68.7,30.6-150,41.8-241.7,33.5c-70.8-6.5-124.8-23.8-165-53.1C42.9,552.7,22.6,529.9,3,507.9c-23.8-26.8-48.4-54.5-80-72.5
					l2.1-3.7C-42.7,450-17.8,478,6.2,505.1C25.6,527,45.7,549.6,69.6,567c39.6,28.8,92.9,46,162.9,52.3c91,8.3,171.6-2.8,239.6-33.1
					c35.2-15.7,68-37.1,99.8-57.8c24.2-15.8,49.1-32,75.1-45.8c70-37.1,149.2-56.6,229-56.6c0.1,0,0.2,0,0.4,0
					c26.7,0,61.2,2.1,90.6,18.3c25.1,13.8,48.9,42.3,45.5,75.1c-3.7,36.6-37.5,64.8-103,86.1c-134.6,43.8-273.2,81.2-411.8,111
					c-7.3,1.6-14.7,3.1-22.1,4.7c-61.8,13.1-125.7,26.7-184.3,51.6c-51.9,22.1-121.4,63.1-158,133.3c-10.7,20.5-20.9,50.4-9,76.2
					c17,36.8,67.8,44.6,107.5,44.7c0.7,0,1.5,0,2.3,0c150.1,0,297.5-42.6,440.1-83.8c39.9-11.5,81.2-23.5,121.9-34.3
					c181-48.1,366.7-77.9,551.7-88.6c246.3-14.2,431,13.7,581.2,87.8c40.3,19.9,107.7,62.7,106.4,125.8
					c-0.7,33.8-23.2,68.6-58.8,90.6c-32.6,20.2-70.6,28.7-106.7,35.7c-251.6,48.7-514.2,41.2-768.1,33.9
					c-283.6-8.1-576.8-16.5-854.2,53.9c-49.6,12.6-101.2,28.5-142.9,59.7c-45.2,33.8-71,83.2-67.2,128.9L33,1437.3z"/>
			</g>
		</g>
	</g>
	<path class="st7" d="M1261.6,1438.9c57.5,14.7,136.5,28,111.3,77.1l-143.2-0.1L1261.6,1438.9z"/>
	<g>
		<path class="st8" d="M676.7,1554.5H518.8c-42,0-76-34-76-76v-302.2c0-42,34-76,76-76h157.8c42,0,76,34,76,76v302.2
			C752.7,1520.5,718.6,1554.5,676.7,1554.5z"/>
		<path class="st9" d="M511.8,1142.2c-5.2,1.4-8.7,6.1-11.1,11c-2.4,4.9-3.9,10.3-5.1,15.8c-2.4,10.9-3.5,22.1-4.1,33.3
			c-1.1,22.4-0.7,44.9,0.7,67.3c1.3,22.4,3.3,44.9,6,67.2c1.3,11.2,2.8,22.3,4.5,33.4c1.7,11.1,3.5,22.2,5.8,33.2l-1.6,0.4
			c-2.7-11-5-22-7.1-33.1c-2-11.1-3.7-22.3-5.3-33.5c-3-22.4-5.2-44.9-6.6-67.4c-1.1-22.6-1.7-45.2-0.1-67.8
			c0.9-11.3,2.2-22.6,4.9-33.7c1.4-5.5,3.1-11,5.9-16.1c1.4-2.5,3-5,5.1-7.1c2.1-2.1,4.7-3.8,7.6-4.4L511.8,1142.2z"/>
	</g>
	<path class="st10" d="M564.8,1172.1c0,0,8.8,177.8,64,373.3h150.8L564.8,1172.1z"/>
	<path class="st11" d="M634,1081.4c-37.9-20.6-48.3-71.7-20.6-104.9c2.7-3.2,5.6-6.4,8.9-9.7c42.3-42.1,15.9-84.2,10-181.1
		c-5.9-96.8,101.9-123.2,102.1-123.3c5.1-1.2,14.9-15.8,19.1-19.4c48.7-42.2,118.5-39.1,171.8-7c25.4,15.3,50.9,38.8,64.7,65.8
		c21.8,42.8,25.7,99.3,62.4,132.6c52.3,47.5,110.3,87.9,108,164.6c-0.8,27.2-7.6,56-24.2,77.8c-14.5,19-36.5,31.8-56.4,44.1
		c-32.3,20-66.5,37.7-102.6,49.6c-34.9,11.5-70.3,21.8-105.7,31.7c-3.3,0.9-6.7,1.9-10.1,2.8L634,1081.4z"/>
	<path class="st12" d="M880.6,1039.5c126.6-43.5,195.4,98.3,290,374.9l91,24.6l-10.6,98.5l-33.2,6.9l-271.1,1.1L880.6,1039.5z"/>
	<rect x="33.9" y="1512.8" class="st1" width="1925.8" height="66.4"/>
	<polygon class="st12" points="702.2,1018.9 985.4,1089.8 1104.4,1446.3 706.9,1458.5 680.6,1194.8 	"/>
	<path class="st13" d="M712.2,1172.1c69.6,70.1,54.2,172.7,113.6,182.9c39.4,6.7,151.2,22.7,204.5,45c10.8,4.5,40.6,26.7,36,46.3
		c-3,12.7-42.7,2.5-42.7,2.5L726.4,1419l-62.9-145.6L712.2,1172.1z"/>
	<path class="st8" d="M956.6,1428.9c2-3.2,44.6-11.6,49.5-11c15.8,2.2,24.5,14.6,28.3,24.1l-63,33.3L956.6,1428.9z"/>
	<path class="st8" d="M1003.8,1171.8l7.3,16.7c2.4,5.6,4.7,11.2,7,16.8c4.5,11.3,8.8,22.6,12.9,34.1c8.2,22.8,15.5,46,22.4,69.3
		c6.7,23.3,12.8,46.9,18.1,70.5c2.6,11.9,5.1,23.7,7.3,35.7c2.2,11.9,4,24,5.6,36l-1.6,0.2c-2-11.9-4.3-23.8-6.8-35.7
		c-2.4-11.9-5.1-23.7-7.9-35.4c-5.6-23.6-11.8-47-18.5-70.2c-6.6-23.3-14-46.4-21.7-69.3c-3.8-11.5-8-22.8-12.2-34.2
		c-2.2-5.7-4.2-11.3-6.4-17l-6.8-16.9L1003.8,1171.8z"/>
	<g>
		<path class="st14" d="M1230.2,1489.1c0,0-11.9,14.1-49.5,0.4c-17.7,2.1-50.7,0.5-113.4-9.7c0,0,22.8,15.9,74.2,18.7
			c0,0-2.2,15.2-29.3,14.5c-32.7-0.8-36.4-2.8-66.2-1.5c-6.1,0.3-19.3,0-33.7-0.5c-25-0.8-53.5-2.1-53.5-2.1l-24.8-44.3l49.5-23.7
			c15.2-5.9,22.8-8,30.1-9c32-4.5,52.1-8.1,75-4.2C1114.2,1431.8,1191.9,1457.6,1230.2,1489.1z"/>
	</g>
	<path class="st7" d="M1013.7,1510l-1.4,0.8c-25-0.8-53.5-2.1-53.5-2.1l-24.8-44.3l49.5-23.7c15.2-5.9,22.8-8,30.1-9
		C995.5,1439,980.6,1458.5,1013.7,1510z"/>
	<path class="st12" d="M818.9,1039c-64.4-13.2-221.3-24.2-265.1,57.1c-36.1,66.9,54.4,290.8,93.6,369.5c16.1,32.4,63,48.5,81.2,48.6
		l258.7-1.5c-17.4-4-39.7-97.4,18.9-94.8l-214.2-29.8c-8.3-1.2-15.8-5.8-20.5-12.9c-3.1-4.7-6.7-10.6-8.5-17.3l-60.8-222.7
		L818.9,1039z"/>
	<polygon class="st6" points="1391.2,1514.2 1138.9,1514 1138.9,1490.2 1392.7,1490.2 	"/>
	<g>
		<polygon class="st8" points="1604.4,1514.2 1300,1514.1 1411.1,1189.4 1715.5,1189.5 		"/>
		<path class="st6" d="M1532.3,1369.1c-9.3,14.9-26.8,21-40.1,14.5c-0.8-0.4-1.5-0.8-2.3-1.3c-13.6-8.5-16.5-28.1-6.6-43.9
			c9.9-15.8,28.8-21.7,42.4-13.2c4.1,2.6,7.2,6.1,9.3,10.3C1539.8,1345.2,1539.1,1358.1,1532.3,1369.1z"/>
		<path class="st12" d="M1532.3,1369.1c-9.3,14.9-32.3,25.7-48.3,8c34.9,3.2,46.6-19.7,45.9-48.5
			C1541.8,1341.8,1539.1,1358.1,1532.3,1369.1z"/>
	</g>
	<g>
		<path class="st11" d="M1088.9,1426.6c12.9,1.9,25.5,5.5,37.9,9.4c12.4,3.9,24.6,8.4,36.6,13.5c12,4.9,23.8,10.6,35.2,16.9
			c11.3,6.4,22.4,13.5,32.2,22.2l-1.1,1.3c-5.2-3.8-10.5-7.4-16-10.7c-5.5-3.4-11.1-6.5-16.8-9.4c-11.4-5.9-23.1-11.4-35.1-16.2
			c-11.8-5.2-23.9-9.6-36.1-13.9c-6.1-2.1-12.2-4.2-18.4-6c-6.2-1.9-12.4-3.7-18.6-5.1L1088.9,1426.6z"/>
		<path class="st11" d="M1083.8,1486.7l13.6,3.9c4.5,1.2,9.1,2.3,13.7,3.2c4.6,0.9,9.2,1.7,13.8,2.3c4.6,0.6,9.3,1.1,14,1.5l1.6,0.2
			l0.1,1.3c0.2,1.8,0,3.4-0.5,5c-0.5,1.6-1.4,3.2-2.7,4.3c-1.3,1.1-2.9,1.8-4.4,2.1c-0.8,0.2-1.6,0.2-2.3,0.3l-2.3-0.1v-1.7l2-0.3
			c0.6-0.2,1.3-0.3,1.9-0.5c1.2-0.4,2.3-1.1,3.1-2c0.8-0.9,1.3-1.9,1.6-3.1c0.3-1.1,0.3-2.5,0.1-3.6l1.7,1.5
			c-9.6-0.2-19.1-1.3-28.5-3.5c-4.7-1.1-9.3-2.5-13.8-4.1c-4.5-1.6-8.9-3.5-13.2-5.5L1083.8,1486.7z"/>
		<path class="st11" d="M1072.3,1453.9c10.9,1.4,22,2.5,33,3.6c11,1.2,22,2.3,33,4c11,1.8,21.8,3.7,32.7,5.7c10.9,2,21.8,4,32.6,6.2
			l2.6,0.5l-1.1,2.4c-0.7,1.6-1.4,3.9-2.8,5.9c-0.6,1.1-1.5,1.8-2.3,2.7c-0.9,0.7-1.9,1.5-2.9,2c-4,2.3-8.3,3.1-12.4,3.9
			c-8.4,1.4-16.8,1.3-25.1,1c-4.2-0.2-8.3-0.3-12.4-0.7c-4.1-0.3-8.3-0.6-12.4-1.1c-8.2-0.9-16.4-2-24.6-3.2l0.2-1.6
			c8.2,0.7,16.4,1.6,24.7,2.1c4.1,0.3,8.2,0.6,12.3,0.8c4.1,0.3,8.2,0.3,12.3,0.4c8.2,0,16.4-0.1,24.4-1.4c3.9-0.8,7.9-1.6,11-3.5
			c0.8-0.5,1.5-1.1,2.2-1.6c0.5-0.7,1.3-1.2,1.7-2c1-1.4,1.5-3.1,2.5-5.3l1.5,2.9c-21.7-4.1-43.4-8.5-65.2-12.2
			c-10.8-2-21.8-3.3-32.8-4.8c-11-1.5-22-2.9-32.9-4.9L1072.3,1453.9z"/>
	</g>
	<line class="st15" x1="33.9" y1="1512.8" x2="1959.6" y2="1512.8"/>
	<path class="st8" d="M787.2,1123.4c9.4,6.4,19.8,11,30.7,13.6c10.9,2.5,22.2,3.2,33.2,1.3c11-1.7,21.5-6,30.4-12.6
		c9-6.6,16.1-15.5,21.1-25.6l1.5,0.7c-1.2,2.6-2.4,5.3-3.6,7.9c-1.4,2.5-3.1,4.9-4.6,7.4c-1.7,2.4-3.8,4.5-5.6,6.7
		c-2,2.1-4.3,3.9-6.5,5.9c-9.2,7.3-20.4,11.9-32,13.8c-11.6,1.8-23.5,1.2-34.7-1.9c-11.2-3.1-21.8-8.4-30.8-15.7L787.2,1123.4z"/>
	<path class="st8" d="M712.9,1171.9l14.1,48l13.9,48.1l13.8,48.1l6.8,24.1l3.4,12c1.2,4,2.1,8.1,3.7,11.6
		c3.1,7.3,9.4,12.7,16.5,16.4c7.2,3.7,15.1,6,23.2,7.7c8.1,1.7,16.3,2.9,24.5,4l24.8,3.4l49.6,6.9l49.5,7.1l-0.2,1.6l-49.7-5.9
		l-49.7-6.2l-24.8-3.2c-8.3-1-16.6-2.2-24.8-3.9c-8.2-1.8-16.5-4.1-24.2-8c-7.6-3.9-14.8-10-18.3-18.2c-0.5-1-0.9-2-1.2-3.1
		c-0.3-1-0.7-2.1-1-3.1l-1.7-6l-3.4-12l-6.7-24.1l-13.4-48.2l-13.2-48.3l-13-48.3L712.9,1171.9z"/>
	<g>
		<path class="st14" d="M873.8,938.3l12.7,109.2c3.8,32.5-30.5,59.7-65.2,50.7c-19.9-5.2-40.5-18.9-61.9-39.5
			c-4.4-4.2-7.1-9.7-7.7-15.6l-13.5-131.6L873.8,938.3z"/>
		<path class="st16" d="M875.5,953.2l6.9,59.5c-28.1,4.4-67.6-11.4-107.7-64.6L875.5,953.2z"/>
		<path class="st14" d="M944.7,859.7c-1.6,19.8-4.7,40.5-10.3,59.1c-9.4,31.2-25.8,56.4-53.8,61.1c-82.6,13.7-142.4-68.4-142.4-68.4
			l-9.6-111.7l49.8-86.2l111.6-3.2l54.4,64.4C944.4,774.7,948.4,814.9,944.7,859.7z"/>
		<path class="st11" d="M725.9,842.2c44.3-3.3,54.5-40.8,57.6-89.3c0,0,120.1-29.7,162.7,55.6l32.3,3.5l-97.9-130l-152.2,18.2
			L698.7,799L725.9,842.2z"/>
		<path class="st14" d="M749.3,827.7c-5.2-5.8-13-8.7-20.7-7.7c-29.5,3.6-34.6,42.6-27.8,59.2c10.1,24.8,37.4,32.4,37.4,32.4
			l23.4-24.8C763.5,860.9,760.5,840,749.3,827.7z"/>
		<path class="st17" d="M749.8,941.5c16.2,46,66,176-15.3,172.7c-39.2-1.6-73.6-77.6-129.5-63.3c6.2-3,13.1-5.7,20.9-8.1
			L749.8,941.5z"/>
		<path class="st11" d="M738.1,911.5c15.7,29.8,59.6,177.2-15.2,168.7c-36-4.1-44.9-47.5-97.1-37.3L738.1,911.5z"/>
		<g>
			<path class="st16" d="M740.7,854.7c0.1-3.5-1-6.6-2.7-9.3c-1.7-2.7-4.2-4.9-6.9-6.1c-2.7-1.2-5.7-1.5-8.5-0.5
				c-2.8,1-5.4,3.2-7.9,5.8l-1.8-1.1c1.4-3.5,3.9-7.1,7.8-9.1c1-0.5,2-1,3.1-1.1c1.1-0.3,2.2-0.5,3.3-0.4l1.7,0.1l1.6,0.3
				c1.1,0.2,2.1,0.6,3.1,1.1c3.9,1.8,7,5,8.7,8.8c1.8,3.7,2.2,8.2,0.7,11.9L740.7,854.7z"/>
			<path class="st16" d="M898.7,838c0.3,7.6,4.7,13.6,9.9,13.4c5.2-0.2,9.2-6.5,8.9-14.1c-0.3-7.6-4.7-13.6-9.9-13.4
				C902.5,824.1,898.5,830.4,898.7,838z"/>
			<path class="st16" d="M816.8,840.9c0.3,7.6,4.7,13.6,9.9,13.4c5.2-0.2,9.2-6.5,8.9-14.1c-0.3-7.6-4.7-13.6-9.9-13.4
				C820.6,827,816.6,833.3,816.8,840.9z"/>
			<path class="st16" d="M897.7,915.3c-3.6,4.5-7.9,8.7-13.5,11.5c-5.7,2.7-12.6,3.1-18.5,1.3c-6-1.7-11.1-5-15.7-8.6
				c-4.6-3.6-8.6-7.8-12.2-12.3l1.7-1.8c4.7,3.2,9.1,6.7,13.7,9.6c4.6,2.9,9.3,5.6,14.2,7.1c4.9,1.5,9.9,1.4,14.7-0.3
				c4.8-1.8,9.3-5,13.9-8.3L897.7,915.3z"/>
			<path class="st16" d="M926.4,814.6c-3.7-2.5-7.1-4.9-10.5-6.5c-3.5-1.5-6.8-2.3-10.3-1.9c-3.4,0.3-7,1.5-10.6,3.1
				c-3.7,1.6-7.3,3.8-11.4,5.6l-1.1-1.2c2.2-4,5.2-7.5,9-10.3c3.7-2.8,8.4-5,13.6-5.4c5.2-0.5,10.6,1.4,14.4,4.4
				c3.9,3,6.7,6.9,8.3,11.1L926.4,814.6z"/>
			<path class="st16" d="M844.4,817.5c-3.9-2.8-7.8-4.9-11.8-6.2c-4-1.2-8.1-1.7-12.1-1.2c-4.1,0.4-8.1,1.6-12.2,3.3
				c-4.1,1.7-8.1,3.9-12.5,6l-1.1-1.2c2.5-4.3,6.1-8.1,10.3-11c4.2-2.9,9.4-4.9,14.8-5.4c5.4-0.5,11.1,0.7,15.7,3.4
				c4.7,2.7,8.4,6.7,10.3,11.3L844.4,817.5z"/>
			<path class="st18" d="M765.1,893.4c0.6,16.6,14.5,29.5,31.1,29s29.5-14.5,29-31.1c-0.6-16.6-14.5-29.5-31.1-29
				C777.5,862.9,764.5,876.8,765.1,893.4z"/>
			<path class="st18" d="M944.7,859.7c-1.6,19.8-4.7,40.5-10.3,59.1c-12.7-3.2-22.3-14.4-22.7-28.1c-0.6-16.6,12.4-30.5,28.9-31.1
				C942,859.6,943.4,859.6,944.7,859.7z"/>
			<path class="st18" d="M864.8,832.1c0.1-1.4,2.1-1.6,2.5-0.2c6.7,21.9,28.5,37.9,25,44.3c-2.5,4.5-11.7,9.7-18.2,12.8
				c-3.4,1.7-7.5-0.4-8.2-4.1C862.9,868.7,863.1,850.8,864.8,832.1z"/>
			<path class="st16" d="M869.5,829.9c1.5,6.4,4.4,12.2,8,17.7c3.6,5.5,7.8,10.6,12,15.9c1.1,1.3,2.1,2.7,3.1,4.2c1,1.5,2,3,2.8,5.1
				c0.4,1,0.7,2.4,0.4,4.1c-0.5,1.9-1.3,2.6-1.9,3.5c-1.4,1.6-2.9,2.7-4.4,3.7c-6,4-12.4,6.5-19,8.5l-0.9-2.3
				c2.9-1.7,5.8-3.3,8.6-5.2c2.8-1.8,5.6-3.6,8-5.5c1.2-1,2.3-2,3.1-3c0.3-0.5,0.7-1.1,0.5-0.9c0,0,0-0.4-0.3-0.9
				c-0.9-2.2-3.1-5-5.1-7.6c-4.1-5.3-8.4-10.8-11.7-17c-3.4-6.1-5.7-13.1-5.8-20.2L869.5,829.9z"/>
		</g>
		<g>
			<path class="st16" d="M711.9,919.7c-1.9,4.2-2.5,8.8-2.2,13.4c0.3,4.6,1.5,9.1,3.2,13.4c3.6,8.6,8.5,16.9,12.7,25.6
				c4.3,8.6,8.1,17.8,9.9,27.6c0.8,4.9,1.1,10,0.7,15c-0.3,2.5-0.6,5-1.2,7.5c-0.7,2.5-1.5,5-2.8,7.2c-2.3,4.6-5.9,8.8-10.4,11.6
				c-4.5,2.9-10.1,4.1-15.4,3.6c-5.4-0.7-9.9-2.6-14.4-4.4c-4.5-1.9-8.8-3.8-13.2-5.8c-8.7-3.8-17.5-7.6-26.6-9.3
				c-4.5-0.8-9.2-1.1-13.5,0c-2.1,0.6-4.1,1.6-5.9,2.9c-1.8,1.3-3.2,3.1-4.5,5l-1.8-1.1c1.3-2.2,2.7-4.3,4.7-5.9
				c2-1.6,4.3-2.9,6.7-3.7c4.9-1.6,10.1-1.5,15-0.9c9.8,1.5,18.9,5.1,27.9,8.6l13.2,5.5c4.4,1.7,8.8,3.5,13,3.9
				c4.2,0.3,8.5-0.6,12-3c3.6-2.3,6.5-5.7,8.5-9.6c1.1-1.9,1.8-4,2.4-6.1c0.6-2.1,0.8-4.4,1.2-6.6c0.4-4.5,0.2-9.1-0.5-13.7
				c-1.5-9.1-5.1-17.9-9-26.5c-3.9-8.7-8.5-17-12-26.3c-1.6-4.7-2.6-9.6-2.7-14.6c-0.1-5,0.9-10.1,3.3-14.5L711.9,919.7z"/>
			<path class="st16" d="M713.4,668.7c8.1-3.6,16.6-6.3,25.1-8.5c8.5-2.3,17.2-4,25.9-5.3c8.7-1.3,17.5-2.2,26.4-2.5
				c4.4-0.1,8.9-0.1,13.3,0.1c4.4,0.3,8.9,0.8,13.2,1.7l-0.3,2.1c-4.3-0.1-8.6-0.3-13,0c-4.3,0.1-8.7,0.4-13,0.8
				c-8.6,0.8-17.3,1.8-25.9,3.1c-8.6,1.3-17.2,2.8-25.7,4.5c-4.3,0.8-8.5,1.8-12.7,2.8c-4.3,0.9-8.4,2.1-12.6,3.3L713.4,668.7z"/>
			<path class="st16" d="M783,751.9c3.6-1.9,7.4-3.1,11.2-4c3.8-0.9,7.7-1.7,11.6-2.2c7.8-1.1,15.6-1.5,23.5-1.5
				c15.7,0,31.4,2.2,46.6,6.3c15.1,4.2,29.8,10.9,42.4,20.6c6.2,4.9,12,10.4,16.9,16.6c4.8,6.3,8.9,13.1,12,20.3l-1.9,0.9
				c-7.3-13.5-17.4-25.3-29.8-34c-6.2-4.4-12.7-8.3-19.6-11.4c-6.9-3.2-14.1-5.6-21.4-7.8c-14.6-4.3-29.9-6.3-45.2-6.9
				c-7.7-0.3-15.3-0.1-23,0.6c-7.6,0.7-15.4,1.7-22.3,4.4L783,751.9z"/>
		</g>
	</g>
	<g>
		<g>
			<path class="st16" d="M252.3,1172.4l29,9.4c2.5,0.8,4.2,3,4.4,5.6c0.2,2.6-1.3,5-3.6,6.2l-31.6,15c0,0,0.1,0.4,0.1,0.4l44.3,8.8
				c1.7,0.3,2.7,1.9,2.4,3.6c-0.3,1.7-1.9,2.7-3.6,2.4l-44.3-8.8c-2.7-0.6-4.7-2.7-5.1-5.5c-0.3-2.8,1.1-5.3,3.6-6.5l31.6-15l0-0.4
				l-29-9.4c-1.6-0.5-2.5-2.3-2-3.9C248.9,1172.8,250.7,1171.9,252.3,1172.4z"/>
		</g>
		<g>
			<path class="st16" d="M177.5,1132.5l25.7,8.3c2.2,0.7,3.7,2.7,3.9,5c0.2,2.3-1.1,4.5-3.2,5.5l-28.1,13.3c0,0,0,0.4,0,0.4
				l39.3,7.8c1.5,0.3,2.4,1.7,2.1,3.2c-0.3,1.5-1.7,2.4-3.2,2.1l-39.3-7.8c-2.4-0.5-4.2-2.4-4.5-4.8c-0.3-2.5,0.9-4.7,3.2-5.8
				l28.1-13.3l0-0.4l-25.7-8.3c-1.4-0.5-2.2-2-1.8-3.4C174.5,1132.8,176,1132,177.5,1132.5z"/>
		</g>
		<g>
			<path class="st16" d="M332.7,1233.6l20.4,6.6c1.8,0.6,3,2.1,3.1,4c0.1,1.8-0.9,3.5-2.6,4.3l-22.3,10.6c0,0,0,0.3,0,0.3l31.2,6.2
				c1.2,0.2,1.9,1.4,1.7,2.5c-0.2,1.2-1.4,1.9-2.5,1.7l-31.2-6.2c-1.9-0.4-3.3-1.9-3.6-3.8c-0.2-2,0.7-3.8,2.5-4.6l22.3-10.6l0-0.3
				l-20.4-6.6c-1.1-0.4-1.8-1.6-1.4-2.7C330.4,1233.8,331.6,1233.2,332.7,1233.6z"/>
		</g>
	</g>
	<g>
		<path class="st19" d="M1610.9,1073.5h-96.6c-13.1,0-23.9-10.8-23.9-23.9V962c0-13.1,10.8-23.9,23.9-23.9h96.6
			c13.1,0,23.9,10.8,23.9,23.9v87.6C1634.8,1062.8,1624,1073.5,1610.9,1073.5z"/>
		<polygon class="st10" points="1562.6,1100.3 1536.4,1073.5 1588.8,1073.5 		"/>
		<g>
			<path class="st10" d="M1560.3,1044.2c-1.4,0-2.7-0.6-3.7-1.7l-26.2-30.9c-1.7-2-1.5-5,0.5-6.8c2-1.7,5-1.5,6.8,0.5l21.8,25.6
				l33.9-61.1c1.3-2.3,4.2-3.1,6.5-1.9c2.3,1.3,3.2,4.2,1.9,6.5l-37.2,67.1c-0.8,1.4-2.2,2.3-3.7,2.4
				C1560.6,1044.2,1560.5,1044.2,1560.3,1044.2z"/>
		</g>
	</g>
	<g>
		<g>
			<path class="st0" d="M223.5,1369.6c-40.2,9.5-84.8,22.7-103.9,63.3c-18,38.3,0.7,75.5,36.9,93.6c24.5,12.3,117.8,32.9,79.1,78.2
				c-25,29.3-68.5,20.2-97.1,2.9c-14.9-9-28.5,14.3-13.6,23.3c32.5,19.6,69.9,26.8,105.3,10.6c38.4-17.6,53.5-62.8,24.2-95.9
				c-15-17-36.2-24.9-57.1-32.1c-19.7-6.8-45.5-14.4-55.1-35.1c-9-19.6,2.8-41.9,17.8-54.8c19.4-16.7,46.4-22.2,70.6-28
				C247.5,1391.6,240.4,1365.6,223.5,1369.6L223.5,1369.6z"/>
		</g>
		<g>
			<path class="st0" d="M593,1418.9c45.7,2.7,49-56.9,49-56.9s-31.3-15.9-60.6,3.8L593,1418.9z"/>
			<path class="st16" d="M595.6,1400.9c18.2-0.3,27.2-23.2,27.2-23.2s-13.4-8.2-30.3,0.2L595.6,1400.9z"/>
		</g>
		<g>
			<path class="st0" d="M463.9,1363.8c-31.7-33,11.5-74.2,11.5-74.2s32.4,13.5,36.4,48.6L463.9,1363.8z"/>
			<path class="st16" d="M475.2,1350c-11.1-13.4,0-34.1,0-34.1s14.3,4.7,18.6,22.1L475.2,1350z"/>
		</g>
		<path class="st0" d="M529.3,1510c-1.5,3.6-4.9,6.1-8.8,6.6c-30.9,4.8-38.5-3.8-38.5-3.8s-24.6,13.7-82.4-2.6
			c-1.4,2.7-4.3,4.8-7.7,5.9c-8.8,2.9-43.2-0.1-65.6-2.4c-13.5-1.4-53.1,1.7-53.1,1.7c-36.1,0-77.1-9.6-93-45.8
			c-20.1-45.8,1-100.7,35.1-133.5c36.3-35.1,84.8-38.2,128.9-15.2c107,55.7,115,37.6,142.5,14.5l18.5,140.5c6.1,2.1,11.4,5,15.2,9
			c2.6,2.8,4.6,5.3,6.1,7.7C531.4,1500.3,531,1506.1,529.3,1510z"/>
		<path class="st20" d="M455.7,1363.8c-42.9,25.2-44.3,105,38.5,112.8l9.5-36.2L455.7,1363.8z"/>
		<path class="st0" d="M604.3,1423.1c-8.7,30.6-23.1,48.1-37.8,57.9c-13.7,9.2-27.7,11.6-37.8,11.6c-9.1,0-18.1-1.4-26.7-4.2
			c-32.8-10.3-59.6-39.1-59.6-76.8c0-47.7,34.6-84.2,78.2-84.2C570.5,1327.4,619.7,1368.6,604.3,1423.1z"/>
		<path class="st20" d="M566.4,1481c-13.7,9.2-27.7,11.6-37.8,11.6c-0.7,0-1.3,0-2,0c-1.5-2.4-3.5-5-6.1-7.7c-3.8-4-9.2-6.9-15.2-9
			c13.4-2.7,21.1,0.8,21.1,0.8S551.1,1464.4,566.4,1481C566.4,1481,566.4,1481,566.4,1481z"/>
		<path class="st0" d="M519.9,1494.7c-4.3,6.2-3.6,14.9,2.5,19.6c1.4,1.1,2.9,1.8,4.4,1.8h43c2.1,0,3.2-2.2,3.7-5.1
			c1.7-8.6-1.9-17.3-8.6-23C550.9,1476.3,532.4,1476.6,519.9,1494.7z"/>
		<g>
			<path class="st16" d="M442.3,1471.6c8.7-0.4,17.4,0,26.1,0.8c8.7,0.8,17.3,2.2,25.8,4.3c4.3,1.1,8.5,2.4,12.6,4.1
				c4.1,1.7,8.1,3.6,11.8,6.2c3.7,2.6,7,5.8,9.3,9.9c2.2,4.1,3,8.9,2.2,13.3l-1.6-0.2c0.2-4.2-0.8-8.3-3.1-11.7
				c-2.2-3.4-5.3-6.2-8.8-8.4c-7-4.4-15.2-7.2-23.4-9.3c-8.2-2.2-16.7-3.6-25.2-4.8c-8.5-1.1-17.1-2-25.7-2.6V1471.6z"/>
		</g>
		<g>
			<path class="st16" d="M298.9,1386.7c8.6,1.4,17.2,4.4,24.3,9.8c3.5,2.8,6.7,6.1,8.9,10.1c2.3,3.9,3.9,8.2,4.8,12.6
				c0.8,4.4,1.2,8.9,1,13.3c-0.2,4.4-0.8,8.8-1.6,13.2c-1.8,8.6-4.5,17-8,25.1c-1.7,4-3.6,8-5.7,11.8l-0.8,1.4l-0.4,0.7l0,0
				c0.2,0.6-1.8-5.3-0.9-2.8l0.1,0l0.2,0.1l0.4,0.1l3,1.2c2,0.8,4,1.5,6,2.1c8.1,2.7,16.5,4.6,24.9,5.9c8.4,1.2,17.2,2.1,25.7,4.3
				c4.2,1.1,8.5,2.3,12.5,4.3c2,0.9,4,2.1,5.7,3.7c0.8,0.8,1.6,1.8,1.9,3.1c0.5,1.3,0.1,2.7-0.5,3.8l-1.4-0.7
				c0.8-1.7,0.1-3.4-1.4-4.7c-1.5-1.3-3.3-2.3-5.3-3.1c-3.9-1.6-8-2.7-12.2-3.6c-8.4-1.9-16.8-2.5-25.6-3.5
				c-8.7-1.1-17.2-3.1-25.6-5.7c-2.1-0.7-4.2-1.4-6.2-2.1l-3.1-1.2l-0.4-0.1l-0.2-0.1l-0.1,0c0.8,2.5-1.2-3.5-1-2.9l0,0l0.4-0.7
				l0.8-1.4c2-3.8,3.8-7.6,5.5-11.6c3.4-7.8,6.2-16,7.9-24.3c0.8-4.2,1.4-8.4,1.7-12.6c0.1-4.2,0-8.4-0.7-12.5
				c-1.5-8.2-5.5-15.9-12.1-21.1c-6.4-5.4-14.6-8.6-22.9-10.4L298.9,1386.7z"/>
		</g>
		<path class="st16" d="M543.7,1398.3c3,5.5,7.1,10.5,12.5,12.2c2.7,0.9,5.6,1.1,8.7,0.7c1.5-0.1,3-0.6,4.6-0.8
			c1.5-0.4,3.1-0.9,4.7-1.3l0.8,1.6c-1.4,0.9-2.9,1.8-4.4,2.6c-1.6,0.6-3.2,1.3-4.9,1.7c-3.4,0.9-7.2,0.8-10.8-0.3
			c-3.6-1.1-6.7-3.5-8.8-6.4c-2.1-2.9-3.5-6.2-4-9.7L543.7,1398.3z"/>
		<path class="st16" d="M494.6,1377.1c2.6,5.8,6.3,11,11.6,13.1c2.6,1.1,5.5,1.5,8.6,1.4c1.5,0,3.1-0.3,4.6-0.4
			c1.5-0.3,3.1-0.7,4.7-0.9l0.7,1.6c-1.5,0.8-3,1.5-4.6,2.3c-1.7,0.5-3.3,1.1-5.1,1.3c-3.5,0.6-7.3,0.3-10.7-1.1
			c-3.5-1.4-6.4-4-8.3-7.1c-1.9-3.1-3-6.4-3.2-10L494.6,1377.1z"/>
	</g>
	<g>
		<polygon class="st21" points="1536,718.1 1583.6,718.1 1545.6,471.9 1498,471.9 		"/>
		<polygon class="st22" points="1583.7,718.1 1631.3,718.1 1593.3,471.9 1545.7,471.9 		"/>
		<g>
			<rect x="1649.2" y="605" class="st21" width="175.7" height="113"/>
			<rect x="1699.9" y="641.7" class="st6" width="74.3" height="19.8"/>
		</g>
		<rect x="1415.3" y="397.5" class="st22" width="82.7" height="320.5"/>
		<rect x="1370.8" y="718" class="st21" width="494.9" height="35.6"/>
	</g>
	<g>
		
			<ellipse transform="matrix(0.7071 -0.7071 0.7071 0.7071 113.5258 783.9435)" class="st23" cx="1003.1" cy="254.9" rx="159.1" ry="159.1"/>
		<g>
			<polygon class="st8" points="1066,288 998,255.6 1072.3,190.2 1076,194.5 1008.1,254.2 1068.4,282.9 			"/>
		</g>
	</g>
	<g>
		<g>
			<path class="st22" d="M501.4,550.7H245.7c-17,0-30.9-13.8-30.9-30.9V372.7c0-17,13.8-30.9,30.9-30.9h255.7
				c17,0,30.9,13.8,30.9,30.9v147.2C532.3,536.9,518.5,550.7,501.4,550.7z"/>
			<g>
				<rect x="255" y="394.3" class="st21" width="237.1" height="19.7"/>
				<rect x="255" y="436.4" class="st9" width="237.1" height="19.7"/>
				<rect x="255" y="478.6" class="st9" width="237.1" height="19.7"/>
			</g>
		</g>
		<polygon class="st24" points="295.1,762.1 250,726.9 340.2,726.9 		"/>
		<path class="st24" d="M356.2,726.9H100.6c-17,0-30.9-13.8-30.9-30.9V548.9c0-17,13.8-30.9,30.9-30.9h255.7
			c17,0,30.9,13.8,30.9,30.9v147.2C387.1,713.1,373.3,726.9,356.2,726.9z"/>
		<g class="st25">
			<rect x="136.8" y="637.2" class="st6" width="30.7" height="38"/>
			<rect x="186.2" y="595" class="st6" width="30.7" height="80.3"/>
			<rect x="237.7" y="613.2" class="st6" width="30.7" height="62"/>
			<rect x="289.2" y="569.7" class="st6" width="30.7" height="105.5"/>
		</g>
	</g>
</g>
</svg>
