<?xml version="1.0" encoding="utf-8"?>
<!-- Generator: Adobe Illustrator 26.0.1, SVG Export Plug-In . SVG Version: 6.00 Build 0)  -->
<svg version="1.1" id="Layer_1" xmlns="http://www.w3.org/2000/svg" xmlns:xlink="http://www.w3.org/1999/xlink" x="0px" y="0px"
	 width="200px" height="200px" viewBox="0 0 200 200" style="enable-background:new 0 0 200 200;" xml:space="preserve">
<style type="text/css">
	.st0{fill:#1688D9;}
</style>
<g>
	<path class="st0" d="M2.8,57.7c0.9-2.9,1.5-5.9,2.7-8.5c5.3-11.3,18.1-17.1,30.1-14C47.9,38.4,56,49.6,55.3,62.2
		c-0.4,7.4-3.5,13.4-9,18.3c-0.2,0.2-0.5,0.4-0.7,0.6c-0.1,0.1-0.2,0.2-0.3,0.4c1.4,0.9,2.9,1.8,4.2,2.8c4.2,3.5,5.9,8.1,5.9,13.4
		c0,3.5,0.1,6.9,0,10.4c0,1.4,0.4,1.9,1.8,1.9c7.3-0.1,14.6,0,21.9,0c5.2,0,5.8,0.5,5.8,5.7c0,4,0,8,0,11.9c0,0.6,0.1,1.3,0.1,2.1
		c2.5,0,4.9,0.1,7.4-0.1c0.6,0,1.2-0.8,1.6-1.4c5.6-8.3,11.1-16.6,16.7-25c0.4-0.5,0.7-1,1.2-1.7c1.8,1.2,3.6,2.4,5.4,3.6
		c-2.7,4.1-5.4,8.1-8.1,12.1c-2.7,4-5.3,8-8.1,12.2c18.8,0,37.3,0,56,0c0-7.5,0-15,0-22.9c-0.6,0-1.3,0-1.9,0c-7.6,0-15.3,0-22.9,0
		c-1.8,0-3.2-0.5-4.4-1.8c-9.3-9.3-18.6-18.6-27.9-27.9c-2.4-2.4-2.4-3.9,0.1-6.4c3.7-3.7,7.4-7.4,11.2-11.2
		c2.7-2.7,4.1-2.7,6.8-0.1c6.6,6.6,13.2,13.3,19.9,19.8c0.7,0.7,1.8,1.1,2.8,1.2c5,0.1,10.1,0.1,15.7,0.1
		c-7.4-7.4-10.3-15.9-8.1-25.8c1.5-6.7,5.3-11.9,10.9-15.7c11.1-7.5,26.4-5.3,34.9,5.1c8.8,10.7,8.3,27.2-4.1,37.5
		c1.5,1.1,3.2,2,4.6,3.3c3.5,3.1,5.4,7,5.4,11.7c0.1,15.5,0.2,31.1,0,46.6c-0.1,8.7-6.2,15.1-14.8,16.1c-1.4,0.2-1.6,0.8-1.6,2
		c0,11.7,0,23.4,0,35c0,0.8,0,1.5,0,2.5c-2.2,0-4.2,0-6.6,0c0-6.5,0-13,0-19.6c0-6.5,0-12.9,0-19.6c-7.7,0-15.2,0-23,0
		c0,0.8,0,1.6,0,2.3c0,10.7,0,21.3,0,32c0,4.1-0.9,5-5,5c-6.7,0-13.3,0-20,0c-3.5,0-4.5-1-4.5-4.4c0-15.8,0-31.6,0-47.4
		c0-3.8,1-7.2,3.2-10.5c-7.7,0-15.2,0-22.8,0c0,18.5,0,37,0,55.7c4.3,0,8.6,0,12.9,0c0,2.2,0,4.3,0,6.4c-10.9,0-21.7,0-32.7,0
		c0-2.1,0-4.1,0-6.4c4.3,0,8.5,0,12.9,0c0-18.7,0-37.1,0-55.7c-7.5,0-14.9,0-22.7,0c0.4,0.6,0.9,1.2,1,1.8c0.7,2.8,1.9,5.7,2,8.5
		c0.2,15.9,0.1,31.8,0.1,47.7c0,3.1-1.1,4.2-4.3,4.2c-6.9,0-13.9,0-20.8,0c-3.3,0-4.4-1.1-4.4-4.4c0-10.8,0-21.7,0-32.5
		c0-0.8,0-1.5,0-2.4c-7.7,0-15.2,0-22.9,0c0,13,0,26,0,39.1c-2.3,0-4.3,0-6.7,0c0-0.8,0-1.5,0-2.3c0-11.7,0-23.5,0-35.2
		c0-1.2-0.1-1.9-1.6-2c-7.3-0.4-13.5-6.4-14.6-13.6c0-0.2-0.2-0.5-0.3-0.7c0-16.8,0-33.6,0-50.4c1.1-3.9,2.6-7.5,5.9-10
		c1.3-1,2.8-1.9,3.8-2.6c-2.3-3.1-4.9-6-6.7-9.3c-1.5-2.6-2-5.7-3-8.6C2.8,61.8,2.8,59.8,2.8,57.7z M147.4,192c0-0.8,0-1.6,0-2.3
		c0-10.6,0-21.2,0-31.8c0-4.5,0.8-5.2,5.3-5.2c9.9,0,19.8,0,29.6,0c7.1,0,11.1-4,11.1-11.1c0-14.5,0-29,0-43.5
		c0-7.1-4-11.1-11.1-11.1c-14.4,0-28.9,0-43.3,0c-1.9,0-3.4-0.6-4.8-2c-6-6.1-12.1-12.2-18.2-18.3c-0.5-0.5-1-0.9-1.2-1.1
		c-2.9,2.9-5.6,5.7-8.4,8.5c0,0,0.1,0.1,0.2,0.3c8.3,8.3,16.6,16.6,24.9,24.9c0.5,0.5,1.6,0.8,2.4,0.8c8.5,0.1,16.9,0,25.4,0
		c3.4,0,4.5,1.1,4.5,4.5c0,9,0,18.1,0,27.1c0,3.4-1.1,4.5-4.5,4.5c-5.7,0-11.4,0.2-17.1-0.1c-6.7-0.3-11.4,4.5-11.3,11.2
		c0.2,14.2,0.1,28.4,0.1,42.5c0,0.7,0,1.4,0,2.1C136.5,192,141.8,192,147.4,192z M35.6,129.5c14.4,0,28.5,0,42.6,0c0-4.4,0-8.6,0-13
		c-0.9,0-1.6,0-2.3,0c-7.5,0-15,0-22.5,0c-3.5,0-4.6-1.1-4.6-4.6c0-4.8,0-9.6,0-14.4C48.7,90.9,44.7,87,38.2,87
		c-5.8,0-11.7,0.2-17.5-0.1c-6.9-0.3-11.4,4.6-11.4,11.3c0.2,14.3,0.1,28.6,0.1,42.9c0,7.7,3.8,11.5,11.6,11.5c9.8,0,19.6,0,29.4,0
		c4.1,0,5,0.9,5,5c0,10.6,0,21.3,0,31.9c0,0.8,0,1.5,0,2.4c5.5,0,10.9,0,16.3,0c0-0.6,0.1-1.1,0.1-1.6c0-14.5,0-29,0-43.5
		c0-6.6-4.1-10.6-10.7-10.6c-9,0-18.1,0-27.1,0c-3.8,0-4.8-1.1-4.8-4.8c0-8.7,0-17.3,0-26c0-0.6,0-1.2,0-1.9c2.3,0,4.4,0,6.6,0
		c0,4.4,0,8.7,0,13C35.6,120.8,35.6,125.1,35.6,129.5z M48.8,60.6c0-10.8-9-19.8-19.7-19.7C18.3,41,9.4,49.9,9.4,60.5
		c0,10.7,8.9,19.8,19.7,19.8C39.8,80.4,48.8,71.4,48.8,60.6z M154,60.6c0,10.8,9,19.8,19.7,19.8c10.6,0,19.6-9,19.7-19.6
		c0.1-10.8-8.8-19.8-19.6-19.8C163,40.8,154,49.8,154,60.6z"/>
	<path class="st0" d="M136,1.5c1.5,0.8,3.2,1.4,4.5,2.4c2.6,2,3.6,4.9,3.6,8.1c0,8.1,0,16.3,0,24.4c0,7-4,11-11,11
		c-10.5,0-21,0-31.6,0c-1.5,0-2.5,0.4-3.5,1.4c-6.4,6.5-12.9,12.9-19.3,19.3c-0.3,0.3-0.6,0.6-1,1c-1.1,1.1-2.4,1.6-3.8,1
		c-1.6-0.6-2.1-1.9-2.1-3.5c0-5.6,0-11.2,0-16.7c0-0.7,0-1.4,0-2.3c-1.3-0.1-2.6-0.1-3.8-0.2c-5.2-0.4-9.1-4.1-9.2-9.4
		c-0.2-9-0.2-18.1,0-27.1c0.1-4.3,2.9-7.6,7-9c0.4-0.1,0.7-0.3,1-0.4C89.8,1.5,112.9,1.5,136,1.5z M78.4,59.2
		c0.8-0.8,1.3-1.2,1.8-1.7c4.9-4.9,9.8-9.7,14.5-14.6c1.5-1.5,3.1-2.1,5.1-2.1c11.1,0.1,22.2,0,33.3,0c3.4,0,4.5-1.1,4.5-4.5
		c0-7.8,0-15.5,0-23.3c0-4.1-1-5-5-5c-17.5,0-35,0-52.5,0c-3.7,0-7.3,0-11,0c-2.4,0-3.8,1.2-3.8,3.4c-0.1,8.7-0.1,17.3,0,26
		c0,2.1,1.3,3.3,3.4,3.4c1.7,0.1,3.3,0,5,0c3.7,0,4.7,1,4.7,4.7C78.4,49.9,78.4,54.3,78.4,59.2z"/>
	<path class="st0" d="M71.9,34.2c0-2.1,0-4.2,0-6.3c19.6,0,39.2,0,59,0c0,2.1,0,4.2,0,6.3C111.2,34.2,91.6,34.2,71.9,34.2z"/>
	<path class="st0" d="M98.2,21.1c0-2.2,0-4.2,0-6.4c10.9,0,21.7,0,32.7,0c0,2.1,0,4.2,0,6.4C120,21.1,109.2,21.1,98.2,21.1z"/>
	<path class="st0" d="M91.4,14.7c0,2.1,0,4.2,0,6.3c-6.5,0-12.9,0-19.5,0c0-2.1,0-4.2,0-6.3C78.4,14.7,84.9,14.7,91.4,14.7z"/>
</g>
</svg>
