<?xml version="1.0" encoding="utf-8"?>
<!-- Generator: Adobe Illustrator 26.0.1, SVG Export Plug-In . SVG Version: 6.00 Build 0)  -->
<svg version="1.1" id="OBJECTS" xmlns="http://www.w3.org/2000/svg" xmlns:xlink="http://www.w3.org/1999/xlink" x="0px" y="0px"
	 width="374px" height="388px" viewBox="0 0 374 388" style="enable-background:new 0 0 374 388;" xml:space="preserve">
<style type="text/css">
	.st0{opacity:0.3;fill:#828BA4;}
	.st1{opacity:0.8;}
	.st2{fill:#454C61;}
	.st3{fill:#30384F;}
	.st4{fill:#FFFFFF;}
	.st5{fill:#F5D533;}
	.st6{fill:#FF6469;}
	.st7{fill:#75C1F8;}
	.st8{fill:#B8DFFB;}
	.st9{fill:#3FA9F5;}
	.st10{fill:#FBEDA7;}
	.st11{fill:#F9E88F;}
	.st12{opacity:0.7;fill:url(#SVGID_1_);}
	.st13{fill:#B4ECFF;}
	.st14{fill:#95D0F9;}
	.st15{opacity:0.7;fill:url(#SVGID_00000066490738373202716310000002444105883117185420_);}
	.st16{fill:#FFBCBE;}
	.st17{fill:#FFAAAC;}
	.st18{fill:#FF7B80;}
	.st19{opacity:0.7;fill:url(#SVGID_00000138567831780600302730000015018956893225107079_);}
	.st20{opacity:0.7;fill:url(#SVGID_00000047740593593417984960000007492244897160977553_);}
	.st21{fill:#4F5669;}
	.st22{fill:#3A4258;}
	.st23{fill:#7F8492;}
	.st24{fill:#6E7484;}
	.st25{fill:#0077CC;}
	.st26{fill:#EAECF0;}
	.st27{fill:#C8CCD7;}
	.st28{fill:#DFE2E8;}
	.st29{fill:#D0D3DC;}
	.st30{fill:#FCFCFD;}
	.st31{fill:#C0C4D1;}
	.st32{fill:#A7ADBF;}
	.st33{opacity:0.3;fill:#616C8C;}
	.st34{fill:#B0B5C5;}
	.st35{fill:#9098AE;}
	.st36{fill-rule:evenodd;clip-rule:evenodd;fill:#616C8C;}
	.st37{fill:#4D4D4D;}
	.st38{fill:#333333;}
	.st39{fill:#FFC1C3;}
	.st40{fill:#69BCF7;}
	.st41{fill:#596072;}
	.st42{fill:#898E9B;}
	.st43{fill:#A9D8FA;}
	.st44{fill:#F3F3F4;}
	.st45{fill:#8189A3;}
	.st46{fill:#E2E3E6;}
	.st47{fill:url(#SVGID_00000044899761281730570980000014026955265408230831_);}
	.st48{fill:#9FA5B9;}
	.st49{opacity:0.3;fill:#878FA8;}
	.st50{fill:#626879;}
	.st51{fill:#CBCED9;}
	.st52{opacity:0.6;fill:#0077CC;}
	.st53{fill:url(#SVGID_00000098934113497384890180000014317409270694229911_);}
	.st54{fill:#666C7D;}
	.st55{fill:#C6CAD6;}
	.st56{fill:#616C8C;}
	.st57{fill:#84C8F9;}
	.st58{opacity:0.7;fill:url(#SVGID_00000181049998582670836670000006957771865041511817_);}
	.st59{opacity:0.7;fill:url(#SVGID_00000067201473100904572460000003278686283213278392_);}
</style>
<path class="st0" d="M105.8,204.7l184.8,106.7l0.1,0l0,0v0l18,3.8c2.3-0.4,4.5,1.1,4.9,3.4l0,0c0.4,2.3-1.1,4.5-3.4,4.9l-20.7-4.4
	l-80.6,46.6l11.7,2.5c2.3-0.4,4.5,1.1,4.9,3.4v0c0.4,2.3-1.1,4.5-3.4,4.9l-23.3-4.9l-6.6,3.8v0.1l-42.6-25.4c0.1,1,0.2,2.1,0.1,3.1
	c-0.9,16-21.7,27.8-46.5,26.4c-24.8-1.4-44.2-15.4-43.3-31.4c0.8-14.7,18.5-25.8,40.6-26.4l-93.2-53v-7l0,0L105.8,204.7z"/>
<g class="st1">
	<polygon class="st2" points="254.2,105.8 324.2,147.1 325.1,146.7 325.1,95.6 254.2,54.7 253.4,55.1 	"/>
	<g>
		<polygon class="st3" points="253.4,106.2 324.2,147.1 324.2,96 253.4,55.1 		"/>
		<g>
			<polygon class="st4" points="317.6,101.6 319.5,102.7 319.5,101.1 317.6,100 			"/>
			<polygon class="st5" points="288.8,85 315.4,100.3 315.4,98.7 288.8,83.4 			"/>
			<polygon class="st4" points="317.6,105.4 319.5,106.5 319.5,104.9 317.6,103.8 			"/>
			<polygon class="st5" points="303.1,97 315.4,104.1 315.4,102.5 303.1,95.4 			"/>
			<polygon class="st4" points="317.6,109.2 319.5,110.3 319.5,108.7 317.6,107.6 			"/>
			<polygon class="st5" points="296.7,97.1 315.4,107.9 315.4,106.3 296.7,95.5 			"/>
			<polygon class="st4" points="317.6,112.9 319.5,114.1 319.5,112.5 317.6,111.3 			"/>
			<polygon class="st5" points="293.1,98.8 315.4,111.7 315.4,110.1 293.1,97.2 			"/>
		</g>
		<g>
			<polygon class="st4" points="317.6,118.4 319.5,119.6 319.5,118 317.6,116.8 			"/>
			<polygon class="st6" points="301.3,109 315.4,117.2 315.4,115.6 301.3,107.4 			"/>
			<polygon class="st4" points="317.6,122.2 319.5,123.4 319.5,121.7 317.6,120.6 			"/>
			<polygon class="st6" points="289.5,106 315.4,121 315.4,119.3 289.5,104.4 			"/>
			<polygon class="st4" points="317.6,126 319.5,127.1 319.5,125.5 317.6,124.4 			"/>
			<polygon class="st6" points="305.2,118.8 315.4,124.7 315.4,123.1 305.2,117.2 			"/>
			<polygon class="st4" points="317.6,129.8 319.5,130.9 319.5,129.3 317.6,128.2 			"/>
			<polygon class="st6" points="297.1,118 315.4,128.5 315.4,126.9 297.1,116.4 			"/>
		</g>
		<g>
			<polygon class="st4" points="275.6,77 274.1,76.1 274.1,74.9 275.6,75.8 			"/>
			<polygon class="st4" points="262,67.9 272.4,73.9 272.4,75.2 262,69.1 			"/>
			<polygon class="st4" points="275.6,79.9 274.1,79 274.1,77.8 275.6,78.7 			"/>
			<polygon class="st4" points="267.6,74 272.4,76.8 272.4,78 267.6,75.3 			"/>
			<polygon class="st4" points="275.6,82.8 274.1,81.9 274.1,80.7 275.6,81.5 			"/>
			<polygon class="st4" points="265.1,75.5 272.4,79.7 272.4,80.9 265.1,76.7 			"/>
			<polygon class="st4" points="275.6,85.7 274.1,84.8 274.1,83.6 275.6,84.4 			"/>
			<polygon class="st4" points="263.7,77.5 272.4,82.6 272.4,83.8 263.7,78.8 			"/>
			<polygon class="st4" points="275.6,89.8 274.1,89 274.1,87.7 275.6,88.6 			"/>
			<polygon class="st4" points="265.6,82.8 272.4,86.8 272.4,88 265.6,84.1 			"/>
			<polygon class="st4" points="275.6,92.7 274.1,91.9 274.1,90.6 275.6,91.5 			"/>
			<polygon class="st4" points="272.4,89.7 272.4,90.9 259.9,83.7 259.9,82.4 			"/>
			<polygon class="st4" points="275.6,95.6 274.1,94.7 274.1,93.5 275.6,94.4 			"/>
			<polygon class="st4" points="267.5,89.7 272.4,92.5 272.4,93.8 267.5,90.9 			"/>
			<polygon class="st4" points="275.6,98.5 274.1,97.6 274.1,96.4 275.6,97.3 			"/>
			<polygon class="st4" points="272.4,96.7 263.6,91.6 263.6,90.3 272.4,95.4 			"/>
		</g>
	</g>
</g>
<g class="st1">
	<polygon class="st7" points="216.1,104.7 286.1,146 286.9,145.6 286.9,94.5 216.1,53.6 215.3,54 	"/>
	<g>
		<polygon class="st8" points="215.2,105.2 286.1,146.1 286.1,95 215.2,54.1 		"/>
		<g>
			<polygon class="st9" points="228.3,99.5 273,125.3 273,101.4 228.3,75.6 			"/>
			<polygon class="st4" points="231.9,83.4 269.4,105 269.4,104 231.9,82.4 			"/>
			<polygon class="st4" points="231.9,87 269.4,108.6 269.4,107.6 231.9,86 			"/>
			<polygon class="st4" points="231.9,90.6 269.4,112.2 269.4,111.2 231.9,89.6 			"/>
		</g>
		<polygon class="st9" points="215.2,59 286.1,99.9 286.1,95 215.2,54.1 		"/>
	</g>
</g>
<path class="st5" d="M203.7,33.9c0.8,1.4,1.3,2.9,1.3,4.3l0,23.8c0,2.8-5.7,6.7-8.1,5.3L178,53.7c-1.2-0.7-2.3-1.9-3.1-3.3
	C183.7,45.3,194.3,38.2,203.7,33.9z"/>
<path class="st10" d="M178,53.7l18.9,13.7c2.4,1.4,8.1-2.5,8.1-5.3l0-23.8c0-2.8-2-6.2-4.4-7.6L180,18.7c-2.4-1.4-8.4,1.5-8.5,3.9
	l2.1,23.4C173.6,48.9,175.5,52.3,178,53.7z"/>
<path class="st5" d="M203.7,33.9c0.8,1.4,1.3,2.9,1.3,4.3l0,23.8c0,2.8-5.7,6.7-8.1,5.3L178,53.7c-1.2-0.7-2.3-1.9-3.1-3.3
	C183.7,45.3,194.3,38.2,203.7,33.9z"/>
<path class="st11" d="M203.7,33.9c0.8,1.4,1.3,2.9,1.3,4.3l0,23.8c0,2.8-5.7,6.7-8.1,5.3L178,53.7c-1.2-0.7-2.3-1.9-3.1-3.3
	C183.7,45.3,194.3,38.2,203.7,33.9z"/>
<path class="st5" d="M175.6,55.2l20.6,11.9c2.4,1.4,4.4,0.3,4.4-2.5l0-23.8c0-2.8-2-6.2-4.4-7.6l-20.6-11.9
	c-2.4-1.4-4.4-0.3-4.4,2.5l0,23.8C171.3,50.4,173.2,53.8,175.6,55.2z"/>
<linearGradient id="SVGID_1_" gradientUnits="userSpaceOnUse" x1="194.5023" y1="60.0546" x2="176.8284" y2="6.6341" gradientTransform="matrix(-1 0 0 1 373.931 0)">
	<stop  offset="0" style="stop-color:#EDFAFF"/>
	<stop  offset="1" style="stop-color:#30384F;stop-opacity:0"/>
</linearGradient>
<path class="st12" d="M171.3,30.2l0-6.4c0-2.8,2-3.9,4.4-2.5l20.6,11.9c2.4,1.4,4.4,4.8,4.4,7.6l0,16.8
	C192.4,45.4,182.1,35.5,171.3,30.2z"/>
<path class="st13" d="M311.2,72.7l18.9,13.7c2.4,1.4,8.1-2.5,8.1-5.3l0-23.8c0-2.8-2-6.2-4.4-7.6l-20.6-11.9
	c-2.4-1.4-8.4,1.5-8.5,3.9l2.1,23.4C306.8,67.9,308.8,71.3,311.2,72.7z"/>
<path class="st9" d="M336.9,53c0.8,1.4,1.3,2.9,1.3,4.3l0,23.8c0,2.8-5.7,6.7-8.1,5.3l-18.9-13.7c-1.2-0.7-2.3-1.9-3.1-3.3
	C317,64.3,327.5,57.3,336.9,53z"/>
<path class="st9" d="M336.9,53c0.8,1.4,1.3,2.9,1.3,4.3l0,23.8c0,2.8-5.7,6.7-8.1,5.3l-18.9-13.7c-1.2-0.7-2.3-1.9-3.1-3.3
	C317,64.3,327.5,57.3,336.9,53z"/>
<path class="st14" d="M336.9,53c0.8,1.4,1.3,2.9,1.3,4.3l0,23.8c0,2.8-5.7,6.7-8.1,5.3l-18.9-13.7c-1.2-0.7-2.3-1.9-3.1-3.3
	C317,64.3,327.5,57.3,336.9,53z"/>
<path class="st9" d="M308.9,74.2l20.6,11.9c2.4,1.4,4.4,0.3,4.4-2.5l0-23.8c0-2.8-2-6.2-4.4-7.6l-20.6-11.9
	c-2.4-1.4-4.4-0.3-4.4,2.5l0,23.8C304.5,69.5,306.5,72.8,308.9,74.2z"/>
<linearGradient id="SVGID_00000022524812979388835070000018022534841799856512_" gradientUnits="userSpaceOnUse" x1="61.261" y1="79.089" x2="43.587" y2="25.6686" gradientTransform="matrix(-1 0 0 1 373.931 0)">
	<stop  offset="0" style="stop-color:#EDFAFF"/>
	<stop  offset="1" style="stop-color:#30384F;stop-opacity:0"/>
</linearGradient>
<path style="opacity:0.7;fill:url(#SVGID_00000022524812979388835070000018022534841799856512_);" d="M304.5,49.2l0-6.4
	c0-2.8,2-3.9,4.4-2.5l20.6,11.9c2.4,1.4,4.4,4.8,4.4,7.6l0,16.8C325.6,64.4,315.3,54.5,304.5,49.2z"/>
<path class="st16" d="M241.4,40.7l18.9,13.7c2.4,1.4,8.1-2.5,8.1-5.3l0-23.8c0-2.8-2-6.2-4.4-7.6L243.4,5.8C241,4.4,235,7.2,235,9.7
	l2.1,23.4C237,35.9,239,39.3,241.4,40.7z"/>
<path class="st6" d="M267.1,21c0.8,1.4,1.3,2.9,1.3,4.3l0,23.8c0,2.8-5.7,6.7-8.1,5.3l-18.9-13.7c-1.2-0.7-2.3-1.9-3.1-3.3
	C247.2,32.3,257.7,25.3,267.1,21z"/>
<path class="st17" d="M267.1,21c0.8,1.4,1.3,2.9,1.3,4.3l0,23.8c0,2.8-5.7,6.7-8.1,5.3l-18.9-13.7c-1.2-0.7-2.3-1.9-3.1-3.3
	C247.2,32.3,257.7,25.3,267.1,21z"/>
<path class="st18" d="M239.1,42.2l20.6,11.9c2.4,1.4,4.4,0.3,4.4-2.5l0-23.8c0-2.8-2-6.2-4.4-7.6L239.1,8.3
	c-2.4-1.4-4.4-0.3-4.4,2.5l0,23.8C234.7,37.5,236.7,40.8,239.1,42.2z"/>
<linearGradient id="SVGID_00000122683040657664175280000018096710654942762388_" gradientUnits="userSpaceOnUse" x1="131.0541" y1="47.089" x2="113.3801" y2="-6.3314" gradientTransform="matrix(-1 0 0 1 373.931 0)">
	<stop  offset="0" style="stop-color:#EDFAFF"/>
	<stop  offset="1" style="stop-color:#30384F;stop-opacity:0"/>
</linearGradient>
<path style="opacity:0.7;fill:url(#SVGID_00000122683040657664175280000018096710654942762388_);" d="M234.7,17.2l0-6.4
	c0-2.8,2-3.9,4.4-2.5l20.6,11.9c2.4,1.4,4.4,4.8,4.4,7.6l0,16.8C255.8,32.4,245.5,22.5,234.7,17.2z"/>
<path class="st5" d="M365.5,130.2c0.8,1.4,1.3,2.9,1.3,4.3l0,23.8c0,2.8-5.7,6.7-8.1,5.3l-18.9-13.7c-1.2-0.7-2.3-1.9-3.1-3.3
	C345.5,141.5,356.1,134.5,365.5,130.2z"/>
<path class="st10" d="M339.8,149.9l18.9,13.7c2.4,1.4,8.1-2.5,8.1-5.3l0-23.8c0-2.8-2-6.2-4.4-7.6L341.8,115
	c-2.4-1.4-8.4,1.5-8.5,3.9l2.1,23.4C335.4,145.2,337.3,148.5,339.8,149.9z"/>
<path class="st5" d="M365.5,130.2c0.8,1.4,1.3,2.9,1.3,4.3l0,23.8c0,2.8-5.7,6.7-8.1,5.3l-18.9-13.7c-1.2-0.7-2.3-1.9-3.1-3.3
	C345.5,141.5,356.1,134.5,365.5,130.2z"/>
<path class="st11" d="M365.5,130.2c0.8,1.4,1.3,2.9,1.3,4.3l0,23.8c0,2.8-5.7,6.7-8.1,5.3l-18.9-13.7c-1.2-0.7-2.3-1.9-3.1-3.3
	C345.5,141.5,356.1,134.5,365.5,130.2z"/>
<path class="st5" d="M337.4,151.5l20.6,11.9c2.4,1.4,4.4,0.3,4.4-2.5l0-23.8c0-2.8-2-6.2-4.4-7.6l-20.6-11.9
	c-2.4-1.4-4.4-0.3-4.4,2.5l0,23.8C333.1,146.7,335,150.1,337.4,151.5z"/>
<linearGradient id="SVGID_00000073681744115572663700000002989155542321043386_" gradientUnits="userSpaceOnUse" x1="32.7092" y1="156.3303" x2="15.0353" y2="102.91" gradientTransform="matrix(-1 0 0 1 373.931 0)">
	<stop  offset="0" style="stop-color:#EDFAFF"/>
	<stop  offset="1" style="stop-color:#30384F;stop-opacity:0"/>
</linearGradient>
<path style="opacity:0.7;fill:url(#SVGID_00000073681744115572663700000002989155542321043386_);" d="M333.1,126.4l0-6.4
	c0-2.8,2-3.9,4.4-2.5l20.6,11.9c2.4,1.4,4.4,4.8,4.4,7.6l0,16.8C354.2,141.7,343.9,131.8,333.1,126.4z"/>
<g>
	<g>
		<path class="st3" d="M138.6,301l-0.6,8.1c0,0-1,4.7,3,8c4,3.4,10,2.1,14.4,0c3.5-1.7,13.9-6.4,18.2-13.4c1.1-1.7,3.6-5.7-1-8.1
			c-3-1.6-9.2,0.9-13.6,1.9c-2.7,0.6-7.1,1.3-7.1,1.3s-3.9-2.6-7.9-1C140,299.4,138.4,297.7,138.6,301z"/>
		<path class="st21" d="M155.5,292.8c0,0,1,8.2-6.8,10c-7.8,1.7-13.2-0.5-14.1-4.9c-0.6-2.7-3.2-28.2-4.8-42.4l20.4-15.8
			L155.5,292.8z"/>
		<path class="st21" d="M75.2,260.6c1-7.2,3.6-14,4.5-21.2l18.3,5.5c0,0,28.3-12.4,36.3-13.5c4.6-0.6,8.6-0.8,12.8,3
			c5.2,4.8,4.3,10.5,4.3,10.5l-0.4,3.4l-30.8,16.5c0-0.1-11.6,6.4-17.5,8.1c-9,2.6-20.9,0.5-25.5-2.1c-0.6-0.4-1.5-0.8-2.4-1.3
			C74.7,266.5,74.8,263.6,75.2,260.6z"/>
		<path class="st22" d="M163.9,318l-0.6,8.1c0,0-1,4.7,3,8c4,3.4,10,2.1,14.4,0c3.5-1.7,13.9-6.4,18.2-13.4c1.1-1.7,3.6-5.7-1-8.1
			c-3-1.6-9.2,0.9-13.6,1.9c-2.7,0.6-7.1,1.3-7.1,1.3s-3.9-2.6-7.9-1C165.3,316.3,163.7,314.7,163.9,318z"/>
		<g>
			<path class="st3" d="M71.9,362.6c1.1-0.7,2.1-0.6,2.7,0.1l0.1-0.1l5.6,3.2l-4.4,8.3l-6.3-3.1c-0.6-0.4-1-1.2-1-2.8
				C68.6,366,70.1,363.7,71.9,362.6z"/>
			<ellipse transform="matrix(0.5 -0.866 0.866 0.5 -281.2547 252.5881)" class="st3" cx="78.1" cy="369.9" rx="4.8" ry="2.8"/>
		</g>
		<g>
			<path class="st3" d="M139.9,364.3c-1.1-0.7-2.1-0.6-2.7,0.1l-0.1-0.1l-5.6,3.2l4.4,8.3l6.3-3.1c0.6-0.4,1-1.2,1-2.8
				C143.2,367.6,141.8,365.4,139.9,364.3z"/>
			<path class="st3" d="M137.1,373.5c0,2.2-1.5,3-3.4,1.9c-1.9-1.1-3.4-3.7-3.4-5.8c0-2.2,1.5-3,3.4-1.9
				C135.6,368.7,137.1,371.3,137.1,373.5z"/>
		</g>
		<g>
			<path class="st3" d="M77.1,334.5c-1.1-0.7-2.1-0.6-2.7,0.1l-0.1-0.1l-5.6,3.2l4.4,8.3l6.3-3.1c0.6-0.4,1-1.2,1-2.8
				C80.4,337.9,78.9,335.6,77.1,334.5z"/>
			<path class="st3" d="M74.3,343.8c0,2.2-1.5,3-3.4,1.9c-1.9-1.1-3.4-3.7-3.4-5.8c0-2.2,1.5-3,3.4-1.9
				C72.8,339,74.3,341.6,74.3,343.8z"/>
		</g>
		<g>
			<path class="st3" d="M129.8,334.5c1.1-0.7,2.1-0.6,2.7,0.1l0.1-0.1l5.6,3.2l-4.4,8.3l-6.3-3.1c-0.6-0.4-1-1.2-1-2.8
				C126.5,337.9,127.9,335.6,129.8,334.5z"/>
			<path class="st3" d="M132.6,343.8c0,2.2,1.5,3,3.4,1.9c1.9-1.1,3.4-3.7,3.4-5.8c0-2.2-1.5-3-3.4-1.9
				C134.1,339,132.6,341.6,132.6,343.8z"/>
		</g>
		<path class="st23" d="M103.7,345.1l29-14.1c0,0,1.5-0.9,3.6,0.2s2.3,2.6,2.3,2.6v2.1l-29.9,15L103.7,345.1z"/>
		<path class="st23" d="M107.3,346.2L76.7,331c0,0-1.3-0.9-3.4,0.2c-2.1,1.1-2.1,2.6-2.1,2.6v2.1l31.4,16.1L107.3,346.2z"/>
		<path class="st2" d="M99.2,354.1h13.1v-11.9c0-3.3-2.6-5.9-5.9-5.9h-1.3c-3.3,0-5.9,2.6-5.9,5.9V354.1z"/>
		<path class="st3" d="M108.6,321.5v16.7c0,0,0,3.4-3.4,3.4c-3.4,0-2.7-3-2.7-3v-17.1H108.6z"/>
		<path class="st2" d="M112.1,306.2v15.7c0,0-2.2,2.8-6.1,2.8c-3.9,0-6.5-2.8-6.5-2.8v-18L112.1,306.2z"/>
		<path class="st24" d="M181.6,311c0,0,1,8-6.6,9.7c-7.6,1.7-12.8-0.5-13.7-4.7c-0.6-2.6-3.1-27.4-4.7-41.2l19.8-15.4L181.6,311z"/>
		<path class="st25" d="M129.8,268.3c-8-5.1-13.5-8-20.2-9c-9.6-1.4-22.4,2.9-29.5,5.9c-4.6,1.9-18.1,7.7-15,15.2
			c2.3,5.3,13.4,9.2,21.5,13.1c8.1,3.9,18.7,10.9,27.7,11.4c9,0.6,18.8-4.2,26.9-9.5s7.3-13,2-17.8
			C138.9,273.7,136.8,272.8,129.8,268.3z"/>
		<path class="st24" d="M74.1,247.1l49.1,14.9c0,0,28.3-12.4,36.3-13.5c4.6-0.6,8.6-0.8,12.8,3c5.2,4.8,4.3,10.5,4.3,10.5l-0.4,3.4
			l-30.8,16.5c0-0.1-11.6,6.4-17.5,8.1c-9,2.6-20.9,0.5-25.5-2.1c-4.6-2.6-19.6-9.8-25.4-16.2S74.1,247.1,74.1,247.1z"/>
		<g>
			<path class="st3" d="M147.5,284.9v7.9c0,0-1.4,8-9.8,12.5c-8.4,4.5-21.5,8.2-27.9,5.8c-6.4-2.4-30.3-14.8-35.6-17.6
				c-5.2-2.8-7.9-4.3-8.8-6.7c-0.9-2.4-0.2-9.9-0.2-9.9s13.7,10.9,29.4,16.1c15.7,5.2,21.7,8.2,29.4,6.4
				C131.8,297.4,147.5,284.9,147.5,284.9z"/>
			<path class="st2" d="M113.2,309.6c2.3-3.7,0.8-7.8-1.7-11.1c4.9,1.4,8.5,1.8,12.6,0.8c7.7-1.9,23.4-14.4,23.4-14.4v7.9
				c0,0-1.4,8-9.8,12.5c-7.8,4.2-19.7,7.7-26.4,6.2C112,310.9,112.6,310.3,113.2,309.6z"/>
		</g>
		<path class="st23" d="M139.9,365.8c0,0,2.7-4.3-1.4-5.8c-4.1-1.5-27-12.9-27-12.9s-4.9,0.7-4.9,2.6c0,1.9-0.6,4.1-0.6,4.1
			s24.9,11.6,27.3,12.9C135.7,368.1,137.7,367.2,139.9,365.8z"/>
		<path class="st23" d="M70,365.8c0,0-2.1-4.3,2-5.8c4.1-1.5,26.8-13.5,26.8-13.5s4.7,0.7,4.7,2.6s0,4.1,0,4.1s-24.7,12.2-27.1,13.5
			C74,368.1,72.1,367.2,70,365.8z"/>
	</g>
	<g>
		<g>
			<path class="st26" d="M221.3,376.2L221.3,376.2c2.3,0,4.2-1.9,4.2-4.2v-95.3h-8.4V372C217.1,374.4,218.9,376.2,221.3,376.2z"/>
			<path class="st27" d="M221.5,276.8v99.5c-0.1,0-0.2,0-0.2,0c-2.3,0-4.2-1.9-4.2-4.2v-95.3H221.5z"/>
		</g>
		<g>
			<path class="st26" d="M309.5,323.2L309.5,323.2c2.3,0,4.2-1.9,4.2-4.2v-95.3h-8.4V319C305.3,321.3,307.2,323.2,309.5,323.2z"/>
			<path class="st27" d="M309.8,223.7v99.5c-0.1,0-0.2,0-0.2,0c-2.3,0-4.2-1.9-4.2-4.2v-95.3H309.8z"/>
		</g>
		<g>
			<path class="st26" d="M53.6,275.1L53.6,275.1c2.3,0,4.2-1.9,4.2-4.2v-95.3h-8.4v95.3C49.4,273.2,51.3,275.1,53.6,275.1z"/>
			<path class="st27" d="M53.8,175.6V275c-0.1,0-0.2,0-0.2,0c-2.3,0-4.2-1.9-4.2-4.2v-95.3H53.8z"/>
		</g>
		<g>
			<path class="st28" d="M141.8,222L141.8,222c2.3,0,4.2-1.9,4.2-4.2v-95.3h-8.4v95.3C137.6,220.1,139.5,222,141.8,222z"/>
			<path class="st29" d="M142.1,122.5V222c-0.1,0-0.2,0-0.2,0c-2.3,0-4.2-1.9-4.2-4.2v-95.3H142.1z"/>
		</g>
		<g>
			<polygon class="st30" points="41.1,172.8 226,279.6 324.6,222.7 139.7,115.9 			"/>
			<polygon class="st31" points="226,286.6 226,279.6 324.7,222.6 324.7,229.7 			"/>
			<polygon class="st32" points="41.1,179.9 41.1,172.9 226,279.6 226,286.7 			"/>
		</g>
	</g>
	<g>
		<polygon class="st33" points="137.1,178 199.8,214.8 226.2,201 225.6,206.5 199.5,218 136.9,181.8 		"/>
		<polygon class="st34" points="226.2,200 225.6,205.5 199.5,217 199.8,213.8 		"/>
		<polygon class="st4" points="161.5,163.3 137.1,177.1 199.8,213.8 226.2,200 		"/>
		<polygon class="st35" points="137.1,177 199.8,213.8 199.5,217 136.9,180.8 		"/>
		<g>
			<polygon class="st36" points="217.2,200.5 219.6,199.1 217.1,197.7 214.7,199.1 			"/>
			<polygon class="st36" points="212.3,197.7 214.7,196.3 212.2,194.9 209.8,196.2 			"/>
			<polygon class="st36" points="209.2,195.9 211.6,194.5 209.1,193.1 206.7,194.4 			"/>
			<polygon class="st36" points="206.1,194.1 208.5,192.7 206,191.3 203.6,192.6 			"/>
			<polygon class="st36" points="201.2,191.3 203.6,189.9 201.1,188.4 198.7,189.8 			"/>
			<polygon class="st36" points="198.1,189.4 200.5,188.1 198,186.6 195.6,188 			"/>
			<polygon class="st36" points="195,187.6 197.4,186.3 194.9,184.8 192.5,186.2 			"/>
			<polygon class="st36" points="190.1,184.8 192.5,183.5 190,182 187.6,183.4 			"/>
			<polygon class="st36" points="187,183 189.4,181.6 186.9,180.2 184.5,181.6 			"/>
			<polygon class="st36" points="183.9,181.2 186.3,179.8 183.8,178.4 181.4,179.8 			"/>
			<polygon class="st36" points="178.9,178.3 181.3,176.9 178.8,175.5 176.4,176.9 			"/>
			<polygon class="st36" points="175.9,176.5 178.3,175.1 175.7,173.7 173.4,175.1 			"/>
			<polygon class="st36" points="172.7,174.7 175.1,173.3 172.6,171.9 170.2,173.3 			"/>
			<polygon class="st36" points="168.7,172.4 171.1,171 168.6,169.6 166.2,170.9 			"/>
			<polygon class="st36" points="165.6,170.6 167.9,169.2 165.5,167.8 163.1,169.1 			"/>
			<polygon class="st36" points="162.4,168.8 164.8,167.4 162.3,166 159.9,167.3 			"/>
			<polygon class="st36" points="158,171.3 160.4,169.9 157.9,168.5 155.5,169.9 			"/>
			<polygon class="st36" points="155,173 157.4,171.7 154.9,170.2 152.5,171.6 			"/>
			<polygon class="st36" points="161.1,173.1 163.5,171.8 161,170.3 158.7,171.7 			"/>
			<polygon class="st36" points="158.2,174.8 160.5,173.5 158.1,172 155.7,173.4 			"/>
			<polygon class="st36" points="164.3,174.9 166.7,173.6 164.2,172.1 161.8,173.5 			"/>
			<polygon class="st36" points="161.3,176.6 163.7,175.3 161.2,173.8 158.8,175.2 			"/>
			<polygon class="st36" points="146.2,178.1 148.6,176.7 146.1,175.3 143.7,176.7 			"/>
			<polygon class="st36" points="149.3,179.9 151.7,178.5 149.2,177.1 146.8,178.5 			"/>
			<polygon class="st36" points="152.4,181.7 154.8,180.3 152.3,178.9 150,180.3 			"/>
			<polygon class="st36" points="152.3,178.2 154.7,176.8 152.2,175.4 149.8,176.8 			"/>
			<polygon class="st36" points="172.4,179.6 174.8,178.3 172.3,176.8 169.9,178.2 			"/>
			<polygon class="st36" points="175.5,181.4 177.9,180.1 175.4,178.6 173,180 			"/>
			<polygon class="st36" points="178.6,183.2 181,181.9 178.5,180.4 176.1,181.8 			"/>
			<polygon class="st36" points="181.7,185 184.1,183.7 181.6,182.2 179.2,183.6 			"/>
			<polygon class="st36" points="184.8,186.9 187.2,185.5 184.7,184 182.4,185.4 			"/>
			<polygon class="st36" points="188,188.7 190.4,187.3 187.9,185.8 185.5,187.2 			"/>
			<polygon class="st36" points="191.1,190.5 193.5,189.1 191,187.7 188.6,189 			"/>
			<polygon class="st36" points="194.2,192.3 196.6,190.9 194.1,189.5 191.7,190.8 			"/>
			<polygon class="st36" points="197.3,194.1 199.7,192.7 197.2,191.3 194.8,192.6 			"/>
			<polygon class="st36" points="200.4,195.9 202.8,194.5 200.2,193 197.8,194.4 			"/>
			<polygon class="st36" points="203.6,197.7 205.9,196.3 203.3,194.8 200.9,196.2 			"/>
			<polygon class="st36" points="206.7,199.5 209.1,198.1 206.4,196.6 204.1,198 			"/>
			<polygon class="st36" points="209.7,201.2 212.1,199.9 209.6,198.4 207.2,199.8 			"/>
			<polygon class="st36" points="212.8,203 215.2,201.7 212.7,200.2 210.3,201.6 			"/>
			<polygon class="st36" points="205.2,202.1 207.6,200.7 205.1,199.3 202.7,200.6 			"/>
			<polygon class="st36" points="202.1,200.3 204.5,198.9 202,197.5 199.6,198.8 			"/>
			<polygon class="st36" points="199,198.5 201.3,197.1 198.8,195.7 196.5,197 			"/>
			<polygon class="st36" points="195.8,196.7 198.2,195.3 195.7,193.8 193.3,195.2 			"/>
			<polygon class="st36" points="192.7,194.9 195.1,193.5 192.6,192 190.2,193.4 			"/>
			<polygon class="st36" points="189.6,193.1 192,191.7 189.5,190.2 187.1,191.6 			"/>
			<polygon class="st36" points="186.5,191.2 188.9,189.9 186.4,188.4 184,189.8 			"/>
			<polygon class="st36" points="183.5,189.5 185.9,188.1 183.3,186.6 180.9,188 			"/>
			<polygon class="st36" points="180.4,187.7 182.8,186.3 180.1,184.8 177.7,186.2 			"/>
			<polygon class="st36" points="177.2,185.9 179.6,184.5 177,183 174.6,184.4 			"/>
			<polygon class="st36" points="174.1,184.1 176.5,182.7 174,181.3 171.6,182.6 			"/>
			<polygon class="st36" points="171,182.3 173.4,180.9 170.9,179.5 168.5,180.8 			"/>
			<polygon class="st36" points="170.1,185.2 172.7,183.8 170.2,182.3 167.7,183.8 			"/>
			<polygon class="st36" points="173.3,187 175.8,185.6 173.3,184.1 170.8,185.6 			"/>
			<polygon class="st36" points="176.4,188.8 178.9,187.4 176.4,186 173.9,187.4 			"/>
			<polygon class="st36" points="179.5,190.6 182,189.2 179.5,187.8 177,189.2 			"/>
			<polygon class="st36" points="182.6,192.5 185.1,191 182.6,189.6 180.1,191 			"/>
			<polygon class="st36" points="185.7,194.3 188.2,192.8 185.8,191.4 183.2,192.8 			"/>
			<polygon class="st36" points="188.9,196.1 191.4,194.6 188.9,193.2 186.4,194.6 			"/>
			<polygon class="st36" points="192,197.9 194.5,196.4 192,195 189.5,196.4 			"/>
			<polygon class="st36" points="195.1,199.7 197.6,198.2 195,196.7 192.5,198.2 			"/>
			<polygon class="st36" points="198.2,201.5 200.7,200 198.1,198.5 195.6,200 			"/>
			<polygon class="st36" points="201.3,203.3 203.8,201.9 201.2,200.3 198.7,201.8 			"/>
			<polygon class="st36" points="196.8,204 199.2,202.6 196.7,201.2 194.4,202.6 			"/>
			<polygon class="st36" points="193.7,202.2 196.1,200.8 193.6,199.4 191.2,200.7 			"/>
			<polygon class="st36" points="190.6,200.4 193,199 190.5,197.6 188.1,198.9 			"/>
			<polygon class="st36" points="187.5,198.6 189.9,197.2 187.4,195.8 185,197.1 			"/>
			<polygon class="st36" points="184.4,196.8 186.8,195.4 184.3,194 181.9,195.3 			"/>
			<polygon class="st36" points="181.3,195 183.6,193.6 181.1,192.1 178.8,193.5 			"/>
			<polygon class="st36" points="178.1,193.2 180.5,191.8 178,190.3 175.6,191.7 			"/>
			<polygon class="st36" points="175,191.4 177.4,190 174.9,188.5 172.5,189.9 			"/>
			<polygon class="st36" points="171.9,189.5 174.3,188.2 171.8,186.7 169.4,188.1 			"/>
			<polygon class="st36" points="168.8,187.7 171.2,186.4 168.7,184.9 166.3,186.3 			"/>
			<polygon class="st36" points="159.4,182.3 161.8,180.9 159.3,179.5 156.9,180.9 			"/>
			<polygon class="st36" points="158.1,185 160.4,183.6 156.3,181.2 153.9,182.6 			"/>
			<polygon class="st36" points="162.7,187.6 165.1,186.3 161.1,184 158.7,185.3 			"/>
			<polygon class="st36" points="167.3,190.3 169.7,188.9 165.7,186.6 163.3,188 			"/>
			<polygon class="st36" points="191.7,204.5 194.1,203.1 190.1,200.8 187.8,202.2 			"/>
			<polygon class="st36" points="196.4,207.2 198.7,205.8 194.8,203.5 192.4,204.8 			"/>
			<polygon class="st36" points="201,209.8 203.4,208.5 199.4,206.1 197,207.5 			"/>
			<polygon class="st36" points="165.7,185.9 168,184.6 162.6,181.4 160.2,182.8 			"/>
			<polygon class="st36" points="169.3,177.8 171.6,176.5 168.1,174.4 165.8,175.8 			"/>
			<polygon class="st36" points="209.8,204.8 212.2,203.4 208.2,201.1 205.8,202.4 			"/>
			<polygon class="st36" points="204,208.1 206.3,206.7 199.9,203 197.5,204.4 			"/>
			<polygon class="st36" points="206.8,206.5 209.3,205 204.3,202.1 201.8,203.6 			"/>
			<polygon class="st36" points="187.1,201.8 189.5,200.4 170.3,189.3 167.9,190.7 			"/>
			<path class="st36" d="M167.1,183.4l2.4-1.4l-1.7-1c-0.2-0.1-0.1-0.2-0.1-0.3c0,0,0.1,0,0.1,0l0,0c0-0.1-0.1-0.1,0-0.1l2.5-1.4
				l-5.1-2.9l-5.3,3L167.1,183.4z"/>
		</g>
	</g>
	<g>
		<path class="st33" d="M211.7,200.2c0,0-3,1.4-3.6,3.1c-0.6,1.7-2.3,4.2-4.9,5.6c-2.6,1.3-4.9,1.7-4.9,1.7s-2.5,2.2-4.3,3.5
			c-1.9,1.3-23.6,13.8-27.5,15.1c-3.9,1.3-14.2,1.4-20.5,0.2c-6.3-1.2-12.2-3.3-12.2-3.3s0.1-5.2,6.3-7.2c6.2-2.1,25.1-3.2,27.7-4.9
			c2.6-1.7,25.1-10.8,25.1-10.8s14.9-9.3,16.6-8.1C211.2,196.3,211.7,200.2,211.7,200.2z"/>
		<path class="st33" d="M168,173.3c0,0-0.9,1.1-3.2,1.9c-2.3,0.7-3.4,0.8-3.7,2.1c-0.3,1.2,6.2,0.8,6.2,0.8s-0.5,1.3-2.1,1.8
			c-1.6,0.4-2.4,1.3-3.6,2.3c-1.2,0.9-4.2,1.7-5.6,1.6c-1.3-0.1-2.4,0.3-2.4,0.3l-0.3,1.9l-26.4,12.4l-5.3-3.9
			c0,0,14.8-12.3,20.4-13.4c5.6-1.1,15-6,15.5-6.2c0.5-0.2,7.6-4.4,8.1-4C166.1,171,168,173.3,168,173.3z"/>
		<path class="st37" d="M104.8,266.9c3.9-6.7,3.4-15.2-0.6-20.8c-8.4-10.7-21.9-11.8-33.1-19.1c-2.4-1.4-6.3-2-8.2-0.2
			c1-4.7,3.4-5.5,5-5.6c3.6-0.2,6.3,2.2,19.3,8.6c15.5,7.7,18.1,6.9,21.7,9.9c3.6,3,5.6,10.1,5.1,17.8c-0.6,7.7-6.2,13.8-10.7,13.7
			c-1.1,0-2-0.2-3-0.5C102.3,270,103.9,268.6,104.8,266.9z"/>
		<path class="st38" d="M71.1,227c11.2,7.3,24.7,8.4,33.1,19.1c3.9,5.6,4.5,14,0.6,20.8c-0.8,1.7-2.5,3.1-4.5,3.8
			c-3.2-1-7.2-3.4-18.5-8.3c-8.6-3.7-13.2-6.9-15.7-11.6c-1.8-3.3-2.5-7.4-3.2-13.3c-0.6-4.8-0.5-8.2,0-10.6
			C64.8,225,68.7,225.6,71.1,227z"/>
		<g>
			<path class="st39" d="M148.7,179.6c0,0,3.7-7.9,5.3-9c1.6-1.1,5.5-1.1,8.2-1.4c2-0.2,6.2,0.7,6.4,2.5c0.3,1.8-1.1,2.1-2.8,2.7
				c-1.8,0.6-4.3,1.1-5,1.8c-0.8,0.6-0.7,1.8,0.7,1.5c1.4-0.3,3.4-1.7,4.9-1.3c1.3,0.3,1.5,2.2-1.1,2.9c-2.7,0.7-2,1.3-3.6,2
				c-1.6,0.7-3.6,2-5.5,1.8c-2.1-0.2-6.4,2.7-6.4,2.7l-5.2-4.1L148.7,179.6z"/>
			<path class="st9" d="M92.2,177.7l21.7,5.3l27.9-6.8c0,0,5.6-2.3,9.8,2.5c3.3,4.8,1.8,6.5,1.8,6.5l-36.5,16.3c0,0-5.2,3-13.8,1.6
				c-8-1.3-31.5,4.7-31.5,4.7s-3-9.5,1.6-19.9C78.2,176.8,88.9,176.2,92.2,177.7z"/>
			<path class="st40" d="M97.8,177.8c0,0,15,3.4,24.1,10.4c8,6.1,12.7,20.4,11.9,45.7c-0.5,17.6,0.4,18.1-0.7,23.9
				c-0.7,3.6-4,8.8-9.1,11.5c-6.1,3.2-11.8,5.6-20.4,3.7c-8.7-1.9-28.1-11.7-28.1-11.7s-5.9-13.2-5.9-20c0-6.7-1-31.2,1.7-43.3
				C76,177.7,91.8,176.5,97.8,177.8z"/>
			<path class="st39" d="M95.9,169.9l-1.5,13.9c0,0,0.5,5.7,8.5,7.1c8.2,1.5,9.8-4.1,9.8-4.1l-0.2-3.3l1.1-7.7L95.9,169.9z"/>
			<path class="st39" d="M127.3,144.5c0,0,1.5,14.5,1.3,19.3c-0.2,4.4-2.2,13.2-8.4,15.5c-5.1,1.9-11.1-1.3-17.4-5.7
				c-6.3-4.4-8.3-5.5-9.2-9.2s-7.3-21.6-7.3-21.6L127.3,144.5z"/>
			<path class="st3" d="M85.6,139.9c1.2-6,4.9-10.1,9-12.3c7.9-4.2,15.9-4,23.1-1.8c6.8,2.1,10,5.2,11.4,8c0.7,1.5,1.1,2.9,1.3,4.1
				c0,1.8-0.3,3.5-1.2,5.1c-1.2,2.3-3.3,3.8-5,5.7c-1.3,1.5-2.1,3.3-2.3,5.3c-0.2,1.8-0.3,3.8-0.2,5.7l-2.2,0.8c0,0,0.4-5.2-2.6-5.6
				c-4.5-0.6-4.9,6-4.2,7.9c2.9,8.3-1.5,9.8-1.5,9.8c-5.2,2.1-10.7,2.7-15.4-0.8c-3.9-2.9-6.6-7.2-8.2-11.7
				C85.4,154.1,84.3,146.4,85.6,139.9z"/>
			<path class="st39" d="M192.9,211.9l5.1-2.7c0,0,1.5,1,4.7-0.8c3.9-2.2,3.7-4.3,5.2-5.6c2-1.7,3.1-2.1,5.1-3.5
				c2.3-1.7-0.1-5.9-3.6-6c-1.1,0-2.8,0-6.2,1.4c-2.1,0.8-4.9,3.8-4.9,3.8s1.6-2.5,2.3-3.3c0.8-0.7-0.3-2.3-1.8-1.1
				c-1.5,1.3-3.9,4.3-4,5.4c-0.1,1.1-1.3,4.2-1.3,4.2l-4.9,2.8L192.9,211.9z"/>
			<path class="st9" d="M128.2,195.1l31.6,16.8l27.8-11c0,0,5.4-2.8,9.4,3.5c2,3.3,0.3,6.7,0.3,6.7s-23.9,14.6-32.2,17.2
				c-4.1,1.3-8.6,1.8-17.3,1c-9.7-0.8-17.5-4.3-24-7.6c-4.5-2.3-10.2-9.4-8.5-18.1C117.1,194.7,122.6,192.8,128.2,195.1z"/>
		</g>
		<path class="st25" d="M90.8,225.7c8.5,3.3,17.4,6.7,20.8,7.7c3.4,0.9,7.5,7.9,7.1,15.7c-0.4,7.9-1.7,14.8-4.7,17.6
			c-3,2.8-8.4,5.8-17,1.7c-8.6-4.1-20.4-9.2-23.8-11.6c-3.4-2.4-6.5-5.4-7.7-9c-1.3-3.9-2.6-12-2.2-19.6c0.3-7,4.3-13.5,10.9-10.5
			C80.6,220.7,83.5,222.9,90.8,225.7z"/>
		<path class="st3" d="M108.9,239.8c-3.6-3-6.2-2.2-21.7-9.9c-13-6.4-15.7-8.8-19.3-8.6c-2.4,0.1-6.7,2.1-5.1,16.3
			c0.7,5.9,1.4,9.9,3.2,13.3c2.5,4.7,7.1,7.9,15.7,11.6c14.8,6.4,17,8.6,21.5,8.8c4.5,0.2,10.1-6,10.7-13.7
			C114.5,249.9,112.5,242.8,108.9,239.8z"/>
		<g>
			<path class="st41" d="M87.6,247.2l-9-4.6c0,0-2.4-1.5-4.6,6c-0.8,2.9-0.6,11.4-0.6,20.4c0,14.4,0.1,30.4,0.1,30.4l9,4.6
				c0,0,0.6-5.9,0.7-13.4C83.2,275,83.3,251.1,87.6,247.2z"/>
			<path class="st2" d="M87.6,247.2l0,47.6l4.8-1.5v6l-10,4.7v-46.8c0,0,0.2-4.6,2.1-7.6C87.6,244.7,87.6,247.2,87.6,247.2z"/>
		</g>
	</g>
</g>
<g class="st1">
	<polygon class="st7" points="266.6,171.9 336.6,213.2 337.4,212.8 337.4,161.6 266.6,120.7 265.7,121.2 	"/>
	<g>
		<g>
			<polygon class="st4" points="265.7,172.3 336.6,213.2 336.6,162.1 265.7,121.2 			"/>
			<polygon class="st9" points="265.7,126.1 336.6,167 336.6,162.1 265.7,121.2 			"/>
		</g>
		<polygon class="st42" points="302.5,155.3 330.1,171.2 330.1,170.1 302.5,154.2 		"/>
		<polygon class="st42" points="302.5,160.1 330.1,176 330.1,174.9 302.5,159 		"/>
		<polygon class="st42" points="302.5,164.8 330.1,180.7 330.1,179.6 302.5,163.7 		"/>
		<polygon class="st42" points="302.5,169.5 330.1,185.5 330.1,184.4 302.5,168.4 		"/>
		<polygon class="st42" points="302.5,174.3 330.1,190.2 330.1,189.1 302.5,173.2 		"/>
		<polygon class="st43" points="271.9,167.7 295,181.1 295,148.6 271.9,135.3 		"/>
		<polygon class="st42" points="302.5,179 330.1,195 330.1,193.9 302.5,177.9 		"/>
	</g>
</g>
<path class="st33" d="M237.9,180.6l0,0.1l0,0c-0.1,0.3-0.3,0.7-0.8,0.9l-13.9,8c-0.6,0.3-1.3,0.5-2.1,0.5l0,0c0,0,0,0,0,0
	c-0.3,0-0.7,0-1-0.1c0,0-0.1,0-0.1,0c-0.1,0-0.2-0.1-0.4-0.1c-0.2-0.1-0.3-0.1-0.4-0.2l-37.9-21.9c-0.3-0.2-0.5-0.3-0.6-0.5
	c0,0,0,0,0-0.1c-0.1-0.1-0.1-0.2-0.2-0.3c0,0,0,0,0-0.1c0-0.1,0-0.2,0-0.2c0-0.2,0-2.9,0-2.9l2.1,1l12.6-7.3c1.1-0.6,2.9-0.6,4,0
	l28,16.2l0,0l8,4.6c0,0,0,0,0,0c0.7-0.7,2.7-0.2,2.7-0.2l0,2.4C237.9,180.5,237.9,180.5,237.9,180.6z"/>
<path class="st34" d="M173,67.4c0,0,1.1-0.9,1.8-1.3c0.4-0.3,0.8-0.4,1-0.5c0,0,0.1,0,0.1-0.1c0.1-0.1,0.2-0.1,0.2-0.1l0,0
	c0.4-0.1,0.8,0,1.3,0.3l80.8,46.7c1.3,0.7,2.3,2.5,2.3,4l0,59.2c0,0.7-0.3,1.2-0.7,1.5l0,0c0,0-2.3,1.8-2.9,1.8
	c-0.7,0-0.7-2.3-0.7-2.3l0.2-0.6l-79.1-45.7c-1.3-0.7-2.3-2.5-2.3-4l0-53.6c-0.1,0-0.1-0.1-0.2-0.1C173.8,71.6,173,67.4,173,67.4z"
	/>
<path class="st44" d="M175.1,79.3l0-6.6c-0.1,0-0.1-0.1-0.2-0.1c-1.1-1-1.9-5.2-1.9-5.2s1.1-0.9,1.8-1.3c0.4-0.3,0.8-0.4,1-0.5
	c0,0,0.1,0,0.1-0.1c0.1-0.1,0.2-0.1,0.2-0.1l0,0c0.4-0.1,0.8,0,1.3,0.3l80.8,46.7c0.6,0.4,1.2,1,1.6,1.7l-9.5,6.3L175.1,79.3
	C175.1,79.4,175.1,79.4,175.1,79.3z"/>
<path class="st32" d="M180.5,165.9C180.5,165.9,180.5,165.8,180.5,165.9c0-0.1,0-0.2,0-0.3c0-0.2,0-2.9,0-2.9l2.1,1l12.6-7.3
	c1.1-0.6,2.9-0.6,4,0l36,20.8c0,0,0,0,0,0c0.7-0.7,2.7-0.2,2.7-0.2l0,2.4c0,0.1,0,0.1,0,0.2l0,0.1l0,0c-0.1,0.3-0.3,0.7-0.8,0.9
	l-13.9,8c-1.1,0.6-2.9,0.6-4,0l-37.9-21.9c-0.3-0.2-0.5-0.3-0.6-0.5c0,0,0,0,0-0.1C180.6,166.1,180.6,166,180.5,165.9z"/>
<path class="st45" d="M180.6,162.7l2.1,1l12.6-7.3c1.1-0.6,2.9-0.6,4,0l28,16.2l-6.1,8.5v8c-0.7,0-1.4-0.2-1.9-0.5l-37.9-21.9
	c-0.3-0.2-0.5-0.3-0.6-0.5c0,0,0,0,0-0.1c-0.1-0.1-0.1-0.2-0.2-0.3c0,0,0,0,0-0.1c0-0.1,0-0.2,0-0.2
	C180.5,165.4,180.6,162.7,180.6,162.7z"/>
<path class="st46" d="M181.3,164.3l37.9,21.9c1.1,0.6,2.9,0.6,4,0l13.9-8c1.1-0.6,1.1-1.7,0-2.3l-37.9-21.9c-1.1-0.6-2.9-0.6-4,0
	l-13.9,8C180.2,162.6,180.2,163.6,181.3,164.3z"/>
<g>
	<polygon class="st45" points="204.1,167.3 214.2,173.1 214.2,151.4 204.1,145.6 	"/>
	<polygon class="st32" points="214.2,172.9 217.7,170.9 217.7,149.2 214.2,151.2 	"/>
</g>
<linearGradient id="SVGID_00000045620366804311687280000012710449900316226225_" gradientUnits="userSpaceOnUse" x1="148.1111" y1="58.5584" x2="163.8353" y2="154.5583" gradientTransform="matrix(-1 0 0 1 373.931 0)">
	<stop  offset="0" style="stop-color:#3FA9F5"/>
	<stop  offset="1" style="stop-color:#65D8FF"/>
</linearGradient>
<polygon style="fill:url(#SVGID_00000045620366804311687280000012710449900316226225_);" points="175.8,128.7 254.7,174.2 
	254.7,117.3 175.8,71.8 "/>
<polygon class="st44" points="175.8,128.6 254.6,174.2 255.3,173.8 176.4,128.3 "/>
<polygon class="st48" points="175.6,128.7 176.5,128.3 176.5,71.4 175.6,71.8 "/>
<path class="st29" d="M172.5,127.9c0,1.5,1,3.3,2.3,4l80.8,46.7c1.3,0.7,2.3,0.1,2.3-1.3l0-59.2c0-1.5-1-3.3-2.3-4l-80.8-46.7
	c-1.3-0.7-2.3-0.1-2.3,1.3L172.5,127.9z M175.8,128.7l0-56.9l78.8,45.5l0,56.9L175.8,128.7z"/>
<g class="st1">
	<polygon class="st2" points="117.1,118.5 187.1,159.8 188,159.4 188,108.3 117.1,67.4 116.3,67.8 	"/>
	<g>
		<polygon class="st3" points="116.3,118.9 187.1,159.8 187.1,108.7 116.3,67.8 		"/>
		<g>
			<polygon class="st4" points="180.5,114.3 182.5,115.4 182.5,113.8 180.5,112.7 			"/>
			<polygon class="st9" points="151.7,97.6 178.3,113 178.3,111.4 151.7,96 			"/>
			<polygon class="st4" points="180.5,118 182.5,119.2 182.5,117.6 180.5,116.4 			"/>
			<polygon class="st9" points="166,109.7 178.3,116.8 178.3,115.2 166,108.1 			"/>
			<polygon class="st4" points="180.5,121.8 182.5,123 182.5,121.4 180.5,120.2 			"/>
			<polygon class="st9" points="159.6,109.8 178.3,120.6 178.3,119 159.6,108.2 			"/>
			<polygon class="st4" points="180.5,125.6 182.5,126.7 182.5,125.1 180.5,124 			"/>
			<polygon class="st9" points="156,111.5 178.3,124.3 178.3,122.7 156,109.9 			"/>
		</g>
		<g>
			<polygon class="st4" points="180.5,131.1 182.5,132.2 182.5,130.6 180.5,129.5 			"/>
			<polygon class="st5" points="164.2,121.7 178.3,129.8 178.3,128.2 164.2,120.1 			"/>
			<polygon class="st4" points="180.5,134.9 182.5,136 182.5,134.4 180.5,133.3 			"/>
			<polygon class="st5" points="152.4,118.7 178.3,133.6 178.3,132 152.4,117.1 			"/>
			<polygon class="st4" points="180.5,138.7 182.5,139.8 182.5,138.2 180.5,137.1 			"/>
			<polygon class="st5" points="168.1,131.5 178.3,137.4 178.3,135.8 168.1,129.9 			"/>
			<polygon class="st4" points="180.5,142.4 182.5,143.6 182.5,142 180.5,140.8 			"/>
			<polygon class="st5" points="160,130.6 178.3,141.2 178.3,139.6 160,129 			"/>
		</g>
		<g>
			<polygon class="st4" points="138.5,89.7 137,88.8 137,87.6 138.5,88.4 			"/>
			<polygon class="st4" points="124.9,80.6 135.4,86.6 135.4,87.8 124.9,81.8 			"/>
			<polygon class="st4" points="138.5,92.5 137,91.7 137,90.5 138.5,91.3 			"/>
			<polygon class="st4" points="130.5,86.7 135.4,89.5 135.4,90.7 130.5,87.9 			"/>
			<polygon class="st4" points="138.5,95.4 137,94.6 137,93.3 138.5,94.2 			"/>
			<polygon class="st4" points="128,88.1 135.4,92.4 135.4,93.6 128,89.4 			"/>
			<polygon class="st4" points="138.5,98.3 137,97.4 137,96.2 138.5,97.1 			"/>
			<polygon class="st4" points="126.6,90.2 135.4,95.3 135.4,96.5 126.6,91.4 			"/>
			<polygon class="st4" points="138.5,102.5 137,101.6 137,100.4 138.5,101.3 			"/>
			<polygon class="st4" points="128.5,95.5 135.4,99.4 135.4,100.7 128.5,96.7 			"/>
			<polygon class="st4" points="138.5,105.4 137,104.5 137,103.3 138.5,104.2 			"/>
			<polygon class="st4" points="135.4,102.3 135.4,103.6 122.9,96.3 122.9,95.1 			"/>
			<polygon class="st4" points="138.5,108.3 137,107.4 137,106.2 138.5,107 			"/>
			<polygon class="st4" points="130.4,102.4 135.4,105.2 135.4,106.4 130.4,103.6 			"/>
			<polygon class="st4" points="138.5,111.2 137,110.3 137,109.1 138.5,109.9 			"/>
			<polygon class="st4" points="135.4,109.3 126.5,104.2 126.5,103 135.4,108.1 			"/>
		</g>
	</g>
</g>
<g>
	<path class="st49" d="M204.3,229.9l36.3-20.1c1.3-0.8,3.5-0.8,4.9,0l23.8,12.9c1.3,0.8,1.1,2.7-0.2,3.5L233.1,247
		c-1.3,0.8-3.5,0.8-4.9,0l-23.6-13.6C203.3,232.6,203,230.7,204.3,229.9z"/>
	<g>
		<path class="st50" d="M204.6,232.4l23.6,13.6c1.3,0.8,3.5,0.8,4.9,0l36.1-20.8c1.3-0.8,1.6-2.7,0.2-3.5l-23.8-12.9
			c-1.3-0.8-3.5-0.8-4.9,0l-36.3,20.1C203,229.7,203.3,231.6,204.6,232.4z"/>
		<g>
			<path class="st51" d="M204.6,231.4l23.6,13.6c1.3,0.8,3.5,0.8,4.9,0l36.1-20.8c1.3-0.8,1.3-2,0-2.8l-23.6-13.6
				c-1.3-0.8-3.5-0.8-4.9,0l-36.1,20.8C203.3,229.4,203.3,230.6,204.6,231.4z"/>
			<polygon class="st52" points="232.1,242.8 266.7,222.8 243.1,209.2 208.6,229.2 			"/>
			
				<linearGradient id="SVGID_00000167374037783974287550000011808157110207460255_" gradientUnits="userSpaceOnUse" x1="434.716" y1="81.2093" x2="466.6335" y2="170.8236" gradientTransform="matrix(-0.7071 -0.7071 -0.7071 0.7071 663.4341 446.4431)">
				<stop  offset="0" style="stop-color:#30384F;stop-opacity:0"/>
				<stop  offset="1" style="stop-color:#EDFAFF"/>
			</linearGradient>
			<path style="fill:url(#SVGID_00000167374037783974287550000011808157110207460255_);" d="M228,217.9l15.1-8.7l23.6,13.6
				l-23.8,13.7c0-0.2-0.1-0.4-0.1-0.6C240.9,229.3,236.3,222.4,228,217.9z"/>
			<path class="st54" d="M217.4,236.5c-0.6,0.3-0.6,0.8,0,1.2c0.6,0.3,1.5,0.3,2,0c0.6-0.3,0.6-0.8,0-1.2
				C218.9,236.2,218,236.2,217.4,236.5z"/>
		</g>
	</g>
</g>
<g>
	<path class="st33" d="M133,167.5L133,167.5C133,167.5,133,167.5,133,167.5c0.1-0.5,0.2-1,0.4-1.5c0-0.1,0-0.1,0.1-0.2
		c0-0.1,0.1-0.3,0.2-0.4c0-0.1,0.1-0.2,0.1-0.3c0.1-0.1,0.1-0.3,0.2-0.4c0-0.1,0.1-0.2,0.1-0.3c0.1-0.1,0.1-0.2,0.2-0.4
		c0.1-0.1,0.1-0.2,0.2-0.3c0.1-0.1,0.1-0.2,0.2-0.3c0.1-0.1,0.2-0.3,0.2-0.4c0.1-0.1,0.1-0.2,0.2-0.3c0.1-0.2,0.3-0.4,0.4-0.6
		c0-0.1,0.1-0.1,0.1-0.2c0.1-0.2,0.2-0.3,0.3-0.5c0.1-0.1,0.1-0.2,0.2-0.2c0.1-0.1,0.2-0.3,0.3-0.4c0.1-0.1,0.1-0.2,0.2-0.2
		c0.1-0.1,0.2-0.2,0.3-0.4c0.1-0.1,0.2-0.2,0.2-0.2c0.1-0.1,0.2-0.2,0.4-0.3c0.1-0.1,0.2-0.1,0.2-0.2c0.1-0.1,0.3-0.2,0.4-0.3
		c0.1-0.1,0.1-0.1,0.2-0.2c0.2-0.1,0.4-0.3,0.6-0.4c0.8-0.5,1.6-0.9,2.3-1.2c0,0,0,0,0,0c0,0,0.1,0,0.1,0c0.2-0.1,0.3-0.1,0.5-0.2
		c0.2-0.1,0.4-0.2,0.6-0.2c0.1,0,0.2-0.1,0.3-0.1c0.1,0,0.1,0,0.2,0c0.2-0.1,0.4-0.1,0.6-0.1c0.1,0,0.2-0.1,0.4-0.1
		c0.3,0,0.6-0.1,0.9-0.1c0,0,0,0,0.1,0c0.1,0,0.1,0,0.2,0c0.2,0,0.4,0,0.7,0.1c0.1,0,0.2,0,0.3,0.1c0.2,0,0.4,0.1,0.6,0.2
		c0.1,0,0.2,0.1,0.3,0.1c0.3,0.1,0.6,0.3,0.9,0.4c0.2,0.1,0.5,0.3,0.7,0.4c0,0,0.1,0.1,0.1,0.1c0,0,0,0,0.1,0c0,0,0,0,0,0
		c0.2,0.1,0.4,0.3,0.6,0.4c0,0,0,0,0,0c0.1,0.1,0.2,0.1,0.2,0.2c0,0,0,0,0,0c0.1,0.1,0.2,0.2,0.3,0.3c0,0,0,0,0.1,0.1
		c0.2,0.2,0.4,0.4,0.5,0.7c0,0,0,0,0,0c1,1.5,1.3,3.2,0.5,5.3c0,0-6.7,5.3-10.7,6.5c-4,1.2-7.8-0.4-7.8-2.9
		C132.9,168.3,132.9,167.9,133,167.5z"/>
	<g>
		<path class="st55" d="M151.8,164.5c0,0-6.8,5.2-10.8,6.5c-4,1.2-7.8-0.4-7.8-2.9c0-2.5,2.5-7.9,6.2-10s6.2-2.8,9-1.2
			C151.2,158.4,153,161.1,151.8,164.5z"/>
		<path class="st56" d="M148.4,156.8c2.2,1.2,3.8,3.2,3.8,5.6c0,0,0,0.1,0,0.1c0,0-6.9,5.3-11,6.6c-3.7,1.1-7.1-0.1-7.8-2.2
			c0.6-2.7,2.9-7,6.1-8.9C143.1,155.9,145.6,155.3,148.4,156.8z"/>
		<path class="st4" d="M148.4,156.8c1.3,0.7,2.4,1.7,3.1,2.9c-0.9,0.4-1.7,0.8-2.5,1c-3.7,1.1-7.1-0.1-7.8-2.2
			c-0.3-0.9,0-1.2,0.5-1.8C144.3,155.7,146.2,155.6,148.4,156.8z"/>
		<path class="st57" d="M145.3,157c-1.1,0.6-1.7,1.9-1.4,2c0.3,0.2,1.3-0.2,2.4-0.9c1.1-0.6,1.7-1.3,1.4-1.4
			C147.4,156.6,146.4,156.4,145.3,157z"/>
	</g>
</g>
<path class="st16" d="M291.9,191l18.9,13.7c2.4,1.4,8.1-2.5,8.1-5.3l0-23.8c0-2.8-2-6.2-4.4-7.6l-20.6-11.9
	c-2.4-1.4-8.4,1.5-8.5,3.9l2.1,23.4C287.5,186.3,289.5,189.6,291.9,191z"/>
<path class="st6" d="M317.6,171.3c0.8,1.4,1.3,2.9,1.3,4.3l0,23.8c0,2.8-5.7,6.7-8.1,5.3L291.9,191c-1.2-0.7-2.3-1.9-3.1-3.3
	C297.7,182.6,308.2,175.6,317.6,171.3z"/>
<path class="st17" d="M317.6,171.3c0.8,1.4,1.3,2.9,1.3,4.3l0,23.8c0,2.8-5.7,6.7-8.1,5.3L291.9,191c-1.2-0.7-2.3-1.9-3.1-3.3
	C297.7,182.6,308.2,175.6,317.6,171.3z"/>
<path class="st18" d="M289.6,192.6l20.6,11.9c2.4,1.4,4.4,0.3,4.4-2.5l0-23.8c0-2.8-2-6.2-4.4-7.6l-20.6-11.9
	c-2.4-1.4-4.4-0.3-4.4,2.5l0,23.8C285.2,187.8,287.2,191.2,289.6,192.6z"/>
<linearGradient id="SVGID_00000080186134359302932610000010038926108955837887_" gradientUnits="userSpaceOnUse" x1="80.5713" y1="197.4338" x2="62.8974" y2="144.0134" gradientTransform="matrix(-1 0 0 1 373.931 0)">
	<stop  offset="0" style="stop-color:#EDFAFF"/>
	<stop  offset="1" style="stop-color:#30384F;stop-opacity:0"/>
</linearGradient>
<path style="opacity:0.7;fill:url(#SVGID_00000080186134359302932610000010038926108955837887_);" d="M285.2,167.5l0-6.4
	c0-2.8,2-3.9,4.4-2.5l20.6,11.9c2.4,1.4,4.4,4.8,4.4,7.6l0,16.8C306.3,182.8,296,172.9,285.2,167.5z"/>
<path class="st13" d="M130.5,89.5l18.9,13.7c2.4,1.4,8.1-2.5,8.1-5.3l0-23.8c0-2.8-2-6.2-4.4-7.6l-20.6-11.9
	c-2.4-1.4-8.4,1.5-8.5,3.9l2.1,23.4C126.1,84.7,128.1,88.1,130.5,89.5z"/>
<path class="st9" d="M156.2,69.8c0.8,1.4,1.3,2.9,1.3,4.3l0,23.8c0,2.8-5.7,6.7-8.1,5.3l-18.9-13.7c-1.2-0.7-2.3-1.9-3.1-3.3
	C136.3,81.1,146.8,74.1,156.2,69.8z"/>
<path class="st9" d="M156.2,69.8c0.8,1.4,1.3,2.9,1.3,4.3l0,23.8c0,2.8-5.7,6.7-8.1,5.3l-18.9-13.7c-1.2-0.7-2.3-1.9-3.1-3.3
	C136.3,81.1,146.8,74.1,156.2,69.8z"/>
<path class="st14" d="M156.2,69.8c0.8,1.4,1.3,2.9,1.3,4.3l0,23.8c0,2.8-5.7,6.7-8.1,5.3l-18.9-13.7c-1.2-0.7-2.3-1.9-3.1-3.3
	C136.3,81.1,146.8,74.1,156.2,69.8z"/>
<path class="st9" d="M128.2,91.1l20.6,11.9c2.4,1.4,4.4,0.3,4.4-2.5l0-23.8c0-2.8-2-6.2-4.4-7.6l-20.6-11.9
	c-2.4-1.4-4.4-0.3-4.4,2.5l0,23.8C123.8,86.3,125.8,89.7,128.2,91.1z"/>
<linearGradient id="SVGID_00000031204069994373703390000004795360232437839260_" gradientUnits="userSpaceOnUse" x1="241.9506" y1="95.9165" x2="224.2767" y2="42.4963" gradientTransform="matrix(-1 0 0 1 373.931 0)">
	<stop  offset="0" style="stop-color:#EDFAFF"/>
	<stop  offset="1" style="stop-color:#30384F;stop-opacity:0"/>
</linearGradient>
<path style="opacity:0.7;fill:url(#SVGID_00000031204069994373703390000004795360232437839260_);" d="M123.8,66l0-6.4
	c0-2.8,2-3.9,4.4-2.5l20.6,11.9c2.4,1.4,4.4,4.8,4.4,7.6l0,16.8C144.9,81.3,134.7,71.4,123.8,66z"/>
</svg>
