<?xml version="1.0" encoding="utf-8"?>
<!-- Generator: Adobe Illustrator 26.0.1, SVG Export Plug-In . SVG Version: 6.00 Build 0)  -->
<svg version="1.1" id="Layer_1" xmlns="http://www.w3.org/2000/svg" xmlns:xlink="http://www.w3.org/1999/xlink" x="0px" y="0px"
	 width="200px" height="179.3px" viewBox="0 0 200 179.3" style="enable-background:new 0 0 200 179.3;" xml:space="preserve">
<style type="text/css">
	.st0{fill:#1688D9;}
</style>
<path class="st0" d="M1.2,38.5c0.4-1,0.8-2,1.3-2.9c2.1-3.7,5.6-5,9.7-5c12.9,0,25.8,0,38.7,0c0.8,0,1.5,0,2.5,0
	c0-0.8,0.1-1.5,0.1-2.1c0.1-4-0.1-8.1,0.2-12.1c0.5-8.3,6.9-14.5,15.1-15.1c0.8-0.1,1.7-0.1,2.5-0.1c18.7,0,37.5,0,56.2,0
	c5.9,0,10.8,1.9,14.4,6.6c2.5,3.2,3.3,7,3.3,11c0,3.9,0,7.8,0,11.9c1,0,1.7,0,2.5,0c12.8,0,25.6,0,38.4,0c7.7,0,11.6,3.8,11.6,11.5
	c0,23.3,0,46.7,0,70c0,4.5-1.6,7.9-5.6,10.1c-0.5,0.3-0.9,1.3-0.9,2c-0.1,13,0,26.1,0,39.1c0,1.5,0,3.1,0,4.6
	c-0.2,5.7-4,9.6-9.6,9.9c-0.6,0-1.3,0-1.9,0c-53.5,0-106.9,0-160.4-0.1c-2.2,0-4.7-0.4-6.6-1.4c-3.6-1.8-4.9-5.2-4.9-9.1
	c0-14.3,0-28.5,0-42.8c0-1.4-0.3-2.2-1.6-2.8c-2.7-1.3-3.9-3.9-5-6.5C1.2,89.7,1.2,64.1,1.2,38.5z M86.4,127c0-1.9-0.1-3.7,0-5.4
	c0.3-4.8,4.2-8.8,9-9c2.4-0.1,4.7-0.1,7.1-0.1c5.9,0.1,9.9,4.2,10,10.1c0,1.4,0,2.8,0,4.2c0.8-0.1,1.4,0,2-0.1
	c8.7-1.2,17.5-2.4,26.2-3.6c15.3-2.1,30.6-4.2,45.9-6.3c3.7-0.5,4.5-1.3,4.5-5c0-23.3,0-46.5,0-69.8c0-0.6,0-1.2-0.1-1.7
	c-0.3-1.7-1.2-2.8-3-3c-0.8-0.1-1.7-0.1-2.5-0.1c-43.1,0-86.2,0-129.3,0c-14.7,0-29.4,0-44.1,0c-3.3,0-4.5,1.1-4.5,4.3
	c0,23.7,0,47.3,0,71c0,2.7,0.9,3.9,3.6,4.3c4.9,0.7,9.9,1.3,14.8,2c16.3,2.2,32.5,4.5,48.8,6.7C78.7,126,82.4,126.5,86.4,127z
	 M14.3,123.7c0,0.9,0,1.5,0,2.1c0,13.6,0,27.2,0,40.9c0,3.7,1,4.7,4.8,4.7c53.6,0,107.1,0,160.7,0c3.8,0,4.8-1,4.8-4.8
	c0-13.6,0-27.2,0-40.9c0-0.6,0-1.3,0-2.1c-24.1,3.3-48.1,6.6-72.1,10c0,2.9,0,5.5,0,8.1c-0.1,5.8-4.2,9.9-9.9,10c-1.8,0-3.6,0-5.4,0
	c-6.9,0-10.8-4-10.8-10.8c0-2.4,0-4.8,0-7.3C62.3,130.3,38.5,127,14.3,123.7z M66.8,30.5c0-4,0-7.8,0-11.7c0-3.6,1-4.6,4.5-4.6
	c7.9,0,15.7,0,23.6,0c11,0,22,0,33,0c3.3,0,4.3,1,4.3,4.4c0,2.2,0,4.5,0,6.7c0,1.7,0,3.4,0,5.1c2.3,0,4.3,0,6.4,0c0-5,0-9.9,0-14.8
	c0-0.2-0.1-0.4-0.1-0.6c-1.3-4.7-4.9-7.3-10.4-7.3c-16.8,0-33.6,0-50.4,0c-2.7,0-5.5-0.1-8.2,0.1c-4.9,0.2-8.8,4-9.1,9
	c-0.2,4.3-0.1,8.7-0.1,13c0,0.2,0.1,0.5,0.2,0.7C62.5,30.5,64.5,30.5,66.8,30.5z M125.5,21c-17.5,0-34.8,0-52.1,0c0,3.2,0,6.3,0,9.5
	c17.4,0,34.7,0,52.1,0C125.5,27.3,125.5,24.2,125.5,21z M106,132c0-3.1,0-6.1,0-9.2c0-2.5-1.2-3.7-3.6-3.7c-1.9,0-3.8,0-5.7,0
	c-2.4,0.1-3.6,1.3-3.7,3.7c0,6.3,0,12.5,0,18.8c0,2.4,1.3,3.6,3.7,3.6c1.9,0,3.7,0,5.6,0c2.5-0.1,3.7-1.3,3.8-3.8
	C106,138.3,106,135.1,106,132z"/>
</svg>
