<?xml version="1.0" encoding="utf-8"?>
<!-- Generator: Adobe Illustrator 26.0.1, SVG Export Plug-In . SVG Version: 6.00 Build 0)  -->
<svg version="1.1" id="Layer_1" xmlns="http://www.w3.org/2000/svg" xmlns:xlink="http://www.w3.org/1999/xlink" x="0px" y="0px"
	 width="5856.4px" height="1431.7px" viewBox="0 0 5856.4 1431.7" style="enable-background:new 0 0 5856.4 1431.7;"
	 xml:space="preserve">
<style type="text/css">
	.st0{fill:url(#SVGID_1_);}
	.st1{fill:url(#SVGID_00000050653081188222635610000012727756498837380028_);}
	.st2{fill:#1288C1;}
	.st3{fill:#3D485A;}
	.st4{fill:#1E88C2;}
</style>
<linearGradient id="SVGID_1_" gradientUnits="userSpaceOnUse" x1="1697.7426" y1="864.043" x2="1700.5479" y2="542.8548" gradientTransform="matrix(1 0 0 -1 0 1432)">
	<stop  offset="0.2019" style="stop-color:#8BD4F6"/>
	<stop  offset="0.8596" style="stop-color:#1788C1"/>
</linearGradient>
<path class="st0" d="M1893.8,640h-140.6c-23.1-47.7-65.2-71.5-116.9-71.5c-83.5,0-140.7,62-140.7,160.6s57.2,160.6,140.7,160.6
	c51.7,0,93.8-23.8,116.9-71.5h140.5c5.9-28.9,9-58.8,9-89.4C1902.6,698.3,1899.5,668.7,1893.8,640z"/>
<g>
	
		<linearGradient id="SVGID_00000077297559531957326680000012017641688213073047_" gradientUnits="userSpaceOnUse" x1="927.834" y1="1420.5845" x2="938.0438" y2="251.5641" gradientTransform="matrix(1 0 0 -1 0 1432)">
		<stop  offset="0.2019" style="stop-color:#8BD4F6"/>
		<stop  offset="0.8596" style="stop-color:#1788C1"/>
	</linearGradient>
	<path style="fill:url(#SVGID_00000077297559531957326680000012017641688213073047_);" d="M1830.7,951.7c-3.7,0.8-7.6,1.3-11.8,1.3
		c-0.4,0-0.8-0.1-1.3-0.1c-46.9,38.5-108.6,59.9-179.8,59.9c-164.6,0-280.6-116.9-280.6-283.8s116.1-284.6,280.6-284.6
		c78.9,0,146.1,26.6,194.4,73.5c1.9-1.5,4.1-2.8,6.3-3.9c2-1.6,4.1-3.1,6.3-4.5c-76.7-136-222.2-228-389.5-228
		c-130.7,0-248.3,56.1-330,145.5c-17.2-231.2-210-413.4-445.6-413.4c-246.9,0-447,200.1-447,447c0,12.5,0.6,24.8,1.6,37.1
		c-124.7,54.2-212,178.4-212,323c0,194.5,157.6,352.1,352.1,352.1c6.8,0,13.6-0.3,20.3-0.7v-190H207.2
		c-7.3,17.5-24.5,29.9-44.6,29.9c-26.6,0-48.3-21.7-48.3-48.3s21.7-48.3,48.3-48.3c20.6,0,38.2,13,45.1,31.2h204.8
		c9.8,0,17.7,7.9,17.7,17.7v203.8c16-2.5,31.6-6.1,46.7-10.7V775.1h-66.3c-1.3,0-2.5-0.2-3.8-0.4c-7.1,17.8-24.5,30.4-44.8,30.4
		c-26.6,0-48.3-21.7-48.3-48.3s21.7-48.3,48.3-48.3c20.7,0,38.4,13.1,45.2,31.5c1.1-0.2,2.2-0.3,3.4-0.3h84.1
		c9.8,0,17.7,7.9,17.7,17.7v387.1c16.2-6.9,31.9-14.9,46.7-24.1V778.5c-17-7.5-28.9-24.5-28.9-44.2c0-26.6,21.7-48.3,48.3-48.3
		s48.3,21.7,48.3,48.3c0,21-13.5,38.8-32.2,45.5v315.5c18.3-14.7,35.2-31.2,50.2-49.3V941c0-9.8,7.9-17.7,17.7-17.7h98v-46
		c-19.3-6.3-33.3-24.5-33.3-45.9c0-26.6,21.7-48.3,48.3-48.3s48.3,21.7,48.3,48.3c0,19.3-11.4,36-27.9,43.7V941
		c0,9.8-7.9,17.7-17.7,17.7h-98v36.1c2-3.4,4-6.8,5.9-10.3c36,93.3,126.5,159.5,232.5,159.5c87,0,163.5-44.6,208.1-112.1
		c81.7,88.5,198.7,144,328.7,144c165.1,0,309.1-89.5,386.6-222.6c-0.1-0.1-0.1-0.2-0.2-0.3C1837.9,952.9,1834.2,952.5,1830.7,951.7z
		"/>
	<path class="st2" d="M596.2,734.3c0-9.7-7.9-17.6-17.6-17.6c-9.7,0-17.6,7.9-17.6,17.6c0,9.7,7.9,17.6,17.6,17.6
		C588.3,751.9,596.2,744,596.2,734.3z"/>
	<path class="st2" d="M793.3,831.3c0-9.7-7.9-17.6-17.6-17.6c-9.7,0-17.6,7.9-17.6,17.6c0,9.7,7.9,17.6,17.6,17.6
		C785.3,849,793.3,841.1,793.3,831.3z"/>
	<path class="st2" d="M344.5,756.8c0,9.7,7.9,17.6,17.6,17.6s17.6-7.9,17.6-17.6c0-9.7-7.9-17.6-17.6-17.6S344.5,747.1,344.5,756.8z
		"/>
	<path class="st2" d="M145,963.7c0,9.7,7.9,17.6,17.6,17.6s17.6-7.9,17.6-17.6c0-9.7-7.9-17.6-17.6-17.6S145,954,145,963.7z"/>
</g>
<path class="st3" d="M2123,982.7h-150.7c-1,0-1.9-0.8-1.9-1.9V830.2c0-1,0.8-1.9,1.9-1.9H2123c1,0,1.9,0.8,1.9,1.9v150.7
	C2124.8,981.9,2124,982.7,2123,982.7z"/>
<path class="st3" d="M2214.4,803H2126c-0.7,0-1.2-0.5-1.2-1.2v-88.4c0-0.7,0.5-1.2,1.2-1.2h88.4c0.7,0,1.2,0.5,1.2,1.2v88.4
	C2215.7,802.5,2215.1,803,2214.4,803z"/>
<path class="st3" d="M2113.1,699.6H1997c-0.7,0-1.2-0.5-1.2-1.2V582.3c0-0.7,0.5-1.2,1.2-1.2h116.1c0.7,0,1.2,0.5,1.2,1.2v116.1
	C2114.3,699.1,2113.7,699.6,2113.1,699.6z"/>
<path class="st3" d="M2181.1,553.3h-65.6c-0.7,0-1.2-0.5-1.2-1.2v-65.6c0-0.7,0.5-1.2,1.2-1.2h65.6c0.7,0,1.2,0.5,1.2,1.2v65.6
	C2182.3,552.8,2181.8,553.3,2181.1,553.3z"/>
<path class="st3" d="M2075,468.5h-71.6c-0.7,0-1.2-0.5-1.2-1.2v-71.6c0-0.7,0.5-1.2,1.2-1.2h71.6c0.7,0,1.2,0.5,1.2,1.2v71.6
	C2076.2,467.9,2075.7,468.5,2075,468.5z"/>
<path class="st3" d="M2158.5,353.3h-60.7c-0.7,0-1.2-0.5-1.2-1.2v-60.7c0-0.7,0.5-1.2,1.2-1.2h60.7c0.7,0,1.2,0.5,1.2,1.2V352
	C2159.7,352.7,2159.2,353.3,2158.5,353.3z"/>
<path class="st3" d="M2046.8,228.2H2003c-0.4,0-0.8-0.4-0.8-0.8v-43.9c0-0.4,0.4-0.8,0.8-0.8h43.8c0.4,0,0.8,0.4,0.8,0.8v43.9
	C2047.6,227.8,2047.3,228.2,2046.8,228.2z"/>
<g>
	<path class="st3" d="M2515.5,960.2c-128.2,0-225.2-89.8-225.2-229.2c0-140.2,100.2-229.2,228.4-229.2s228.4,88.9,228.4,229.2
		C2747.1,870.4,2644.5,960.2,2515.5,960.2z M2515.5,862.4c59.3,0,116.2-43.3,116.2-131.4c0-88.9-55.3-131.4-114.6-131.4
		s-113,42.5-113,131.4C2404.1,819.1,2455.4,862.4,2515.5,862.4z"/>
	<path class="st3" d="M3248.7,953h-113v-56.1c-28,37.7-76.9,61.7-132.2,61.7c-103.4,0-177.9-67.3-177.9-189.1V509h112.2v244.4
		c0,71.3,39.3,109.8,98.6,109.8c60.9,0,99.4-38.5,99.4-109.8V509h113v444H3248.7z"/>
	<path class="st3" d="M3534,501.8c58.5,0,114.6,27.2,145,68.9V360h113.8v593H3679v-65.7c-26.4,40.9-76.1,72.9-145.8,72.9
		c-113,0-202.7-92.2-202.7-230.8S3420.2,501.8,3534,501.8z M3562.1,600.4c-60.1,0-117,44.9-117,129s56.9,132.2,117,132.2
		c61.7,0,117.8-46.5,117.8-130.6S3623.8,600.4,3562.1,600.4z"/>
</g>
<g>
	<path class="st4" d="M3897.9,400.7h412.3v91h-149.8v471.1h-112.7V491.7h-149.8V400.7z"/>
	<path class="st4" d="M4587.2,970c-129.6,0-223.9-90.2-223.9-230.3c0-140.9,91.8-230.3,223.9-230.3c128.8,0,219.8,87.8,219.8,220.6
		c0,14.5-0.8,29-3.2,43.5h-326.1c5.6,66,50.7,103.1,107.1,103.1c48.3,0,74.9-24.2,89.4-53.9h121.6
		C4771.6,904.8,4697.5,970,4587.2,970z M4478.5,697.8h211.8C4688.7,639,4642,602,4584,602C4530,602,4487.3,636.6,4478.5,697.8z"/>
	<path class="st4" d="M5080.8,509.4c111.1,0,186,58,210.2,157.8h-121.6c-12.9-37.8-42.7-62-89.4-62c-62.8,0-104.7,47.5-104.7,134.5
		s41.9,133.7,104.7,133.7c46.7,0,75.7-20.9,89.4-61.2H5291c-24.2,95-99,157.8-210.2,157.8c-128.8,0-220.6-90.2-220.6-230.3
		C4860.1,599.6,4951.9,509.4,5080.8,509.4z"/>
	<path class="st4" d="M5373.8,366.9h112.7v205.3c29-37.9,78.9-62,138.5-62c100.7,0,173.9,67.6,173.9,190.8v261.7h-112.7V716.4
		c0-71.7-39.5-110.3-99-110.3c-61.2,0-100.7,38.7-100.7,110.3v246.4h-112.7L5373.8,366.9L5373.8,366.9z"/>
</g>
<g>
	<path class="st3" d="M4896.1,1048c40.6,0,69.8,20.3,82.8,44.2v-40.6h37.3v227.3c0,61.3-41,104.7-106.3,104.7
		c-58.4,0-100.2-29.6-107.6-77.1h36.5c8.1,26.8,34.5,45.1,71,45.1c39.4,0,69-25.2,69-72.7v-46.7c-13.4,23.9-42.2,45.5-82.8,45.5
		c-59.7,0-105.5-46.7-105.5-115.7C4790.6,1092.6,4836.4,1048,4896.1,1048z M4903.4,1080c-40.6,0-75.1,29.6-75.1,82
		c0,52.4,34.5,83.2,75.1,83.2s75.5-30.4,75.5-82.8C4978.9,1110.9,4944,1080,4903.4,1080z"/>
	<path class="st3" d="M5115.7,1274h-36.9v-222.4h36.9v36.1c12.6-24.8,36.5-40.2,71.8-40.2v38.2h-9.7c-35.3,0-62.1,15.8-62.1,67.4
		V1274z"/>
	<path class="st3" d="M5327.1,1277.7c-62.9,0-110.8-44.6-110.8-115.3c0-70.2,49.5-114.5,112.4-114.5c63.3,0,112.4,44.2,112.4,114.5
		C5441.2,1233,5390.4,1277.7,5327.1,1277.7z M5327.1,1245.2c38.6,0,76.3-26.4,76.3-82.8c0-56-36.9-82.4-75.1-82.4
		c-39,0-74.3,26.4-74.3,82.4C5254.1,1218.8,5288.6,1245.2,5327.1,1245.2z"/>
	<path class="st3" d="M5463.5,1051.6h37.7l51.1,186.7l55.2-186.7h37.7l54,187.1l50.3-187.1h36.5l-69.4,222.4h-38.2l-53.6-176.6
		l-53.6,176.6h-38.2L5463.5,1051.6z"/>
</g>
</svg>
