<?xml version="1.0" encoding="utf-8"?>
<!-- Generator: Adobe Illustrator 26.0.1, SVG Export Plug-In . SVG Version: 6.00 Build 0)  -->
<svg version="1.1" id="Layer_1" xmlns="http://www.w3.org/2000/svg" xmlns:xlink="http://www.w3.org/1999/xlink" x="0px" y="0px"
	 width="200px" height="200px" viewBox="0 0 200 200" style="enable-background:new 0 0 200 200;" xml:space="preserve">
<style type="text/css">
	.st0{fill:#1688D9;}
</style>
<g>
	<path class="st0" d="M155.9,0.1c2.8,1,5.4,2.1,7.3,4.6c1.7,2.2,2.5,4.7,2.5,7.5c0,13.8,0,27.6,0,41.4c0,3.4-2.4,5.4-5.2,4.4
		c-1.7-0.6-2.6-2.1-2.6-4.6c0-9.6,0-19.3,0-28.9c0-3.9,0-7.8,0-11.7c0-3.3-1.5-4.8-4.8-4.8c-46.8,0-93.6,0-140.4,0
		c-3.5,0-4.8,1.5-4.8,5.4c0,49.5,0,99.1,0,148.6c0,8.4,0,16.8,0,25.2c0,3.8,1.3,5.2,5.2,5.2c46.5,0,93.1,0,139.6,0
		c3.9,0,5.2-1.3,5.2-5.1c0-8.9,0-17.8,0-26.8c0-3.3,2.3-5.3,5.1-4.4c1.8,0.5,2.7,2,2.7,4.4c0,7.4,0,14.7,0,22.1c0,2,0,3.9,0,5.9
		c-0.2,6.7-5,11.5-11.6,11.8c-0.5,0-0.9,0-1.4,0c-46.5,0-93.1,0-139.6,0c-5.3,0-9.5-1.8-11.7-6.8c-0.9-1.9-1.2-4.3-1.2-6.4
		c-0.1-43,0-86.1,0-129.1c0-14.3,0-28.6,0-43C0,6,1.8,3.4,9.8,0.1C58.5,0.1,107.2,0.1,155.9,0.1z"/>
	<path class="st0" d="M200,67.7c-2.8,8.6-8.2,15.9-12.6,23.6c-12.5,22-25.2,43.8-37.9,65.7c-0.8,1.4-2,2.7-3.3,3.7
		c-7.5,5.7-15.1,11.3-22.8,16.8c-1.1,0.8-2.6,1.4-3.9,1.3c-2.1,0-3.4-2-3.1-4.4c0.4-4.4,0.9-8.8,1.4-13.2c0.6-5.3,1.1-10.6,1.8-15.9
		c0.2-1.5,0.6-3.1,1.4-4.4c15.9-27.7,31.9-55.4,47.9-83.1c4.8-8.4,13.7-11.3,22-7.3c4.7,2.3,7.5,6.1,8.7,11.1
		c0.1,0.4,0.3,0.8,0.4,1.2C200,64.6,200,66.1,200,67.7z M168.4,74.4c-13.2,22.8-26.3,45.5-39.4,68.3c5.1,2.9,9.9,5.7,14.9,8.6
		c13.2-22.9,26.3-45.5,39.4-68.3C178.3,80.1,173.4,77.3,168.4,74.4z M187.2,76.2c1.5-2.7,3-5.1,4.2-7.7c1.8-3.9,0.2-8.5-3.5-10.6
		c-3.6-2.1-8.5-1.4-10.9,1.9c-1.8,2.4-3.2,5.1-4.8,7.8C177.3,70.5,182.1,73.3,187.2,76.2z M125,166.7c4.5-3.3,8.7-6.4,13.1-9.7
		c-3.8-2.2-7.4-4.3-11.3-6.5C126.2,156,125.6,161.1,125,166.7z"/>
	<path class="st0" d="M118.7,57.2c0,19.8-16.2,35.9-35.9,35.9c-19.8,0-36-16.3-35.9-36.1c0.1-19.7,16.3-35.9,36-35.8
		C102.7,21.3,118.8,37.5,118.7,57.2z M105.3,73.6c7.6-9.2,8.4-26.3-3.5-37.2c-11.5-10.6-29.2-9.7-39.9,2
		C51.5,49.8,53.7,66,60.4,73.6c2.8-4.2,6.7-7.2,11.3-9.4c-3.1-4.3-3.4-8.9-2.6-13.6c1-6.4,6.4-11,13-11.4c6.3-0.4,12.3,3.6,14,9.6
		c1.5,5.3,1.2,10.5-2.1,15.5C98.6,66.4,102.4,69.5,105.3,73.6z M65.9,79.4c10.8,8.4,25.4,7,33.8-0.1c-3.9-6.2-9.4-9.6-16.7-9.6
		C75.5,69.7,69.9,73,65.9,79.4z M89.1,54.4c0.4-5.4-3.5-7.8-6.6-7.5c-3,0.2-5.4,2.4-5.8,5.4c-0.7,4.7,0.8,8,4.2,9.3
		C84.2,62.8,89.5,60.4,89.1,54.4z"/>
	<path class="st0" d="M76,113.4c-8.7,0-17.3,0-26,0c-0.6,0-1.3,0-1.9-0.1c-2-0.3-3.5-1.9-3.5-3.8c0-1.9,1.5-3.5,3.5-3.8
		c0.6-0.1,1.3-0.1,1.9-0.1c17.4,0,34.9,0,52.3,0c0.1,0,0.3,0,0.4,0c3.2,0,5,1.5,5,3.9c0,2.4-1.9,3.9-5.1,3.9
		C93.8,113.4,84.9,113.4,76,113.4z"/>
	<path class="st0" d="M76.2,127.4c8.7,0,17.4,0,26.2,0c0.6,0,1.3,0,1.9,0.1c2,0.3,3.5,1.9,3.5,3.8c0,1.9-1.5,3.5-3.5,3.8
		c-0.6,0.1-1.3,0.1-1.9,0.1c-17.4,0-34.9,0-52.3,0c-0.1,0-0.3,0-0.4,0c-3.2,0-5.1-1.5-5-3.9c0-2.4,1.9-3.9,5.1-3.9
		C58.5,127.4,67.3,127.5,76.2,127.4z"/>
	<path class="st0" d="M76.4,149.3c8.7,0,17.3,0,26,0c0.7,0,1.3,0,1.9,0.1c2,0.3,3.5,1.9,3.5,3.8c0,1.9-1.5,3.5-3.5,3.8
		c-0.6,0.1-1.3,0.1-1.9,0.1c-17.4,0-34.9,0-52.3,0c-0.1,0-0.3,0-0.4,0c-3.2,0-5.1-1.5-5.1-3.9c0-2.4,1.9-3.9,5.1-3.9
		C58.5,149.3,67.5,149.3,76.4,149.3z"/>
	<path class="st0" d="M93.6,171.2c3.2,0,6.4,0,9.6,0c2.8,0,4.7,1.6,4.7,3.9c0,2.3-1.8,3.9-4.7,3.9c-6.5,0-13,0-19.5,0
		c-2.8,0-4.7-1.6-4.7-3.9c0-2.3,1.8-3.9,4.7-3.9C86.9,171.2,90.2,171.2,93.6,171.2z"/>
	<path class="st0" d="M31.7,113.4c-2-0.1-3.8-1.9-3.8-4c0.1-2,1.9-3.9,4-3.8c2.1,0.1,3.8,1.9,3.8,4
		C35.6,111.6,33.7,113.4,31.7,113.4z"/>
	<path class="st0" d="M35.6,131.3c0,2.1-1.7,3.9-3.7,4c-2,0.1-3.9-1.7-4-3.8c-0.1-2,1.7-3.9,3.8-4C33.7,127.4,35.5,129.2,35.6,131.3
		z"/>
	<path class="st0" d="M31.8,149.4c2.1,0.1,3.8,1.9,3.7,4c0,2.1-1.9,3.8-3.9,3.8c-2-0.1-3.8-1.9-3.8-4
		C27.9,151.1,29.8,149.3,31.8,149.4z"/>
</g>
</svg>
